<svg width="78" height="78" viewBox="0 0 78 78" fill="none" xmlns="http://www.w3.org/2000/svg">
<path fill-rule="evenodd" clip-rule="evenodd" d="M32.1596 31.3142H48.255C49.8456 31.3142 51.135 30.0247 51.135 28.4342C51.135 28.0701 51.0674 27.7217 50.9441 27.401C49.423 22.3292 47.0735 17.0423 44.5929 12.7026C53.557 14.5997 60.8758 20.9647 64.1022 29.3644L64.1376 29.4571C64.7025 30.944 66.3657 31.6915 67.8526 31.1267C69.3396 30.5619 70.0871 28.8986 69.5222 27.4117L69.4792 27.299C64.7768 15.0569 52.9076 6.35986 39 6.35986C20.9734 6.35986 6.35999 20.9733 6.35999 38.9999C6.35999 52.937 15.0939 64.827 27.377 69.5089C28.8633 70.0754 30.5274 69.3298 31.0939 67.8435C31.6605 66.3573 30.9149 64.6932 29.4286 64.1266C23.6273 61.9154 18.7913 57.7539 15.7191 52.4454H26.94C28.5306 52.4454 29.82 51.156 29.82 49.5654C29.82 47.9748 28.5306 46.6854 26.94 46.6854H13.2348C12.5095 44.2501 12.12 41.6703 12.12 38.9999C12.12 36.3291 12.5095 33.7493 13.2348 31.3142H26.2949C25.9351 33.3243 25.6923 35.4057 25.5938 37.5489L25.5841 37.7731C25.5796 37.881 25.5806 37.9799 25.5847 38.0699C25.5867 38.1128 25.5894 38.1519 25.5916 38.1811C25.6438 39.7258 26.9125 40.9621 28.4699 40.9621C30.0605 40.9621 31.3499 39.6727 31.3499 38.0821C31.3499 38.0097 31.348 37.9431 31.3448 37.8818L31.3477 37.8134C31.4508 35.5701 31.735 33.3985 32.1596 31.3142ZM33.5489 12.6729C25.9339 14.2414 19.4951 19.0308 15.7193 25.5542H27.6837C29.1779 20.6369 31.3012 16.2844 33.5489 12.6729ZM39.0896 14.6986C40.9381 17.8045 42.7979 21.6378 44.2499 25.5542H33.7393C35.178 21.3922 37.1029 17.7194 39.0896 14.6986Z" fill="#121212"/>
<path fill-rule="evenodd" clip-rule="evenodd" d="M54.368 73.5596C64.9718 73.5596 73.568 64.9635 73.568 54.3596C73.568 43.7558 64.9718 35.1596 54.368 35.1596C43.7641 35.1596 35.168 43.7558 35.168 54.3596C35.168 64.9635 43.7641 73.5596 54.368 73.5596ZM64.0609 48.7152C65.185 47.5899 65.184 45.7664 64.0587 44.6423C62.9334 43.5182 61.1099 43.5192 59.9858 44.6445L54.3547 50.2817L48.7165 44.6434C47.5917 43.5187 45.7682 43.5187 44.6435 44.6434C43.5188 45.7681 43.5188 47.5916 44.6435 48.7163L50.284 54.3568L44.6424 60.0045C43.5183 61.1298 43.5193 62.9533 44.6446 64.0774C45.7699 65.2015 47.5935 65.2005 48.7176 64.0752L54.3569 58.4297L60.0035 64.0763C61.1282 65.201 62.9517 65.201 64.0765 64.0763C65.2012 62.9516 65.2012 61.1281 64.0765 60.0034L58.4277 54.3546L64.0609 48.7152Z" fill="#121212"/>
</svg>
