<svg width="25" height="47" viewBox="0 0 25 47" fill="none" xmlns="http://www.w3.org/2000/svg">
<path d="M11.4091 4.77273V9.13636C11.4091 10.0043 11.0643 10.8368 10.4505 11.4505C9.83678 12.0643 9.00434 12.4091 8.13636 12.4091H3.77273C2.90475 12.4091 2.07232 12.0643 1.45856 11.4505C0.844804 10.8368 0.5 10.0043 0.5 9.13636V4.77273C0.5 3.90475 0.844804 3.07232 1.45856 2.45856C2.07232 1.8448 2.90475 1.5 3.77273 1.5H8.13636C9.00434 1.5 9.83678 1.8448 10.4505 2.45856C11.0643 3.07232 11.4091 3.90475 11.4091 4.77273ZM21.2273 1.5H16.8636C15.9957 1.5 15.1632 1.8448 14.5495 2.45856C13.9357 3.07232 13.5909 3.90475 13.5909 4.77273V9.13636C13.5909 10.0043 13.9357 10.8368 14.5495 11.4505C15.1632 12.0643 15.9957 12.4091 16.8636 12.4091H21.2273C22.0953 12.4091 22.9277 12.0643 23.5414 11.4505C24.1552 10.8368 24.5 10.0043 24.5 9.13636V4.77273C24.5 3.90475 24.1552 3.07232 23.5414 2.45856C22.9277 1.8448 22.0953 1.5 21.2273 1.5ZM8.13636 14.5909H3.77273C2.90475 14.5909 2.07232 14.9357 1.45856 15.5495C0.844804 16.1632 0.5 16.9957 0.5 17.8636V22.2273C0.5 23.0953 0.844804 23.9277 1.45856 24.5414C2.07232 25.1552 2.90475 25.5 3.77273 25.5H8.13636C9.00434 25.5 9.83678 25.1552 10.4505 24.5414C11.0643 23.9277 11.4091 23.0953 11.4091 22.2273V17.8636C11.4091 16.9957 11.0643 16.1632 10.4505 15.5495C9.83678 14.9357 9.00434 14.5909 8.13636 14.5909ZM21.2273 14.5909H16.8636C15.9957 14.5909 15.1632 14.9357 14.5495 15.5495C13.9357 16.1632 13.5909 16.9957 13.5909 17.8636V22.2273C13.5909 23.0953 13.9357 23.9277 14.5495 24.5414C15.1632 25.1552 15.9957 25.5 16.8636 25.5H21.2273C22.0953 25.5 22.9277 25.1552 23.5414 24.5414C24.1552 23.9277 24.5 23.0953 24.5 22.2273V17.8636C24.5 16.9957 24.1552 16.1632 23.5414 15.5495C22.9277 14.9357 22.0953 14.5909 21.2273 14.5909Z" fill="#0059E7"/>
<circle cx="12.5" cy="41.5" r="4" fill="#0059E7"/>
</svg>
