<svg width="109" height="109" viewBox="0 0 109 109" fill="none" xmlns="http://www.w3.org/2000/svg">
<rect width="109" height="109" rx="54.5" fill="#FEFEFE"/>
<path d="M54.1107 53.3655C58.194 53.3655 61.7299 51.8938 64.619 48.9904C67.5081 46.0876 68.9726 42.5357 68.9726 38.4323C68.9726 34.3302 67.5081 30.7779 64.6185 27.874C61.7289 24.9715 58.1935 23.5 54.1107 23.5C50.0269 23.5 46.4918 24.9715 43.6029 27.8745C40.7139 30.7774 39.2488 34.3298 39.2488 38.4323C39.2488 42.5357 40.7138 46.088 43.6033 48.991C46.4929 51.8935 50.0283 53.3655 54.1107 53.3655ZM80.115 71.1746C80.0316 69.9666 79.8631 68.6486 79.6149 67.2571C79.3645 65.855 79.0421 64.5296 78.656 63.3182C78.2573 62.0661 77.715 60.8298 77.0447 59.6447C76.3489 58.4149 75.5317 57.344 74.6146 56.4628C73.6556 55.5409 72.4816 54.7997 71.1239 54.2589C69.771 53.7213 68.2715 53.4488 66.6677 53.4488C66.0378 53.4488 65.4287 53.7084 64.2523 54.4781C63.416 55.0252 62.5773 55.5686 61.736 56.108C60.9278 56.6255 59.8328 57.1104 58.4802 57.5494C57.1607 57.9784 55.821 58.196 54.4986 58.196C53.1763 58.196 51.8369 57.9784 50.5159 57.5494C49.165 57.1108 48.07 56.626 47.2625 56.1085C46.3261 55.5072 45.4789 54.9586 44.744 54.4775C43.569 53.7079 42.9593 53.4482 42.3295 53.4482C40.7251 53.4482 39.2263 53.7211 37.8737 54.2595C36.517 54.7992 35.3425 55.5404 34.3826 56.4633C33.466 57.345 32.6484 58.4153 31.9535 59.6447C31.2837 60.8296 30.7413 62.0656 30.3421 63.3187C29.9564 64.5301 29.6341 65.855 29.3836 67.2571C29.1355 68.6468 28.967 69.9651 28.8836 71.176C28.8007 72.3946 28.7595 73.6157 28.7603 74.8372C28.7603 78.0736 29.7842 80.6936 31.8033 82.6259C33.7975 84.5327 36.436 85.5 39.6447 85.5H69.3553C72.564 85.5 75.2016 84.5332 77.1962 82.626C79.2158 80.695 80.2397 78.0746 80.2397 74.8367C80.2392 73.5875 80.1974 72.3553 80.115 71.1746Z" fill="#0059E7"/>
</svg>
