<svg width="25" height="47" viewBox="0 0 25 47" fill="none" xmlns="http://www.w3.org/2000/svg">
<path d="M12.3492 14.0608C13.9298 14.0608 15.2986 13.4912 16.4169 12.3673C17.5353 11.2436 18.1022 9.86865 18.1022 8.28025C18.1022 6.69233 17.5353 5.31726 16.4167 4.19316C15.2982 3.06962 13.9296 2.5 12.3492 2.5C10.7684 2.5 9.39995 3.06962 8.28164 4.19335C7.16333 5.31707 6.59619 6.69219 6.59619 8.28025C6.59619 9.86865 7.16328 11.2438 8.28182 12.3675C9.40037 13.491 10.7689 14.0608 12.3492 14.0608ZM22.4153 20.9547C22.3831 20.4871 22.3178 19.9769 22.2218 19.4382C22.1249 18.8955 22.0001 18.3824 21.8506 17.9135C21.6963 17.4288 21.4863 16.9502 21.2269 16.4915C20.9575 16.0155 20.6412 15.6009 20.2862 15.2598C19.915 14.9029 19.4605 14.616 18.9349 14.4067C18.4112 14.1985 17.8308 14.0931 17.21 14.0931C16.9661 14.0931 16.7304 14.1936 16.275 14.4915C15.9512 14.7033 15.6266 14.9136 15.3009 15.1224C14.988 15.3228 14.5642 15.5105 14.0406 15.6804C13.5298 15.8465 13.0112 15.9307 12.4993 15.9307C11.9875 15.9307 11.469 15.8465 10.9577 15.6804C10.4347 15.5106 10.0108 15.323 9.69828 15.1226C9.3358 14.8899 9.00785 14.6775 8.72337 14.4913C8.26853 14.1934 8.03252 14.0928 7.78872 14.0928C7.16766 14.0928 6.58747 14.1985 6.06391 14.4069C5.53872 14.6158 5.08406 14.9027 4.71248 15.26C4.35771 15.6013 4.04118 16.0156 3.77219 16.4915C3.51291 16.9502 3.30298 17.4286 3.14843 17.9137C2.99915 18.3826 2.87435 18.8955 2.77741 19.4382C2.68136 19.9762 2.61614 20.4865 2.58386 20.9552C2.55175 21.427 2.53583 21.8996 2.53614 22.3725C2.53614 23.6253 2.93248 24.6395 3.71407 25.3874C4.486 26.1256 5.50737 26.5 6.74944 26.5H18.2503C19.4924 26.5 20.5134 26.1258 21.2855 25.3875C22.0673 24.64 22.4636 23.6256 22.4636 22.3723C22.4634 21.8887 22.4473 21.4117 22.4153 20.9547Z" fill="#0059E7"/>
<circle cx="12.5" cy="40.5" r="4" fill="#0059E7"/>
</svg>
