<svg width="23" height="22" viewBox="0 0 23 22" fill="none" xmlns="http://www.w3.org/2000/svg">
<mask id="mask0_1007_17325" style="mask-type:luminance" maskUnits="userSpaceOnUse" x="0" y="0" width="23" height="22">
<path d="M0.5 0H22.5V22H0.5V0Z" fill="white"/>
</mask>
<g mask="url(#mask0_1007_17325)">
<path d="M19.6925 18.3398C21.4379 16.3929 22.5 13.8207 22.5 11.0002C22.5 4.92504 17.5751 0.000179291 11.5 0.000179291C5.42486 0.000179291 0.5 4.92504 0.5 11.0002C0.5 13.8207 1.56206 16.3929 3.30745 18.3398H19.6925Z" fill="#5E73DD"/>
<path d="M15.2382 4.81243C15.2382 4.81243 15.4454 3.26711 14.7012 2.40425C14.5898 2.275 14.378 2.363 14.3916 2.53311L14.4003 2.64251C14.4003 2.64251 13.9733 1.8093 12.8742 1.48214C12.7215 1.43672 12.5932 1.6046 12.6745 1.74154L12.7246 1.82611C12.7246 1.82611 12.062 1.16357 9.86627 1.11781C9.70501 1.11446 9.62509 1.31263 9.74291 1.42276L9.86868 1.54036C9.86855 1.54036 9.04183 1.68616 7.94647 2.34934C7.81129 2.43115 7.84502 2.63641 7.99902 2.6716L8.08874 2.6921C7.66481 3.17962 7.43038 3.6873 7.31092 4.01442C7.25897 4.1566 7.39819 4.29367 7.53952 4.23953C7.53952 4.23953 7.20307 5.80071 7.61063 7.14779L11.4999 8.02637L15.3893 7.14779C15.3893 7.14779 15.6249 6.01556 15.2382 4.81243Z" fill="#FFCB37"/>
<path d="M9.90919 4.73491C8.7633 4.48917 7.94801 4.03938 7.53967 4.23987C7.53967 4.23987 7.20323 5.80109 7.61079 7.14816L10.0115 7.69043L9.90919 4.73491Z" fill="#FCAC1F"/>
<path d="M18.4178 15.641C17.4725 14.8064 13.3774 14.132 13.3774 14.132H9.62236C9.62236 14.132 5.52722 14.8064 4.58191 15.641C4.19313 15.9843 3.72451 17.1208 3.30737 18.3401C4.37781 19.5341 5.70537 20.4929 7.20301 21.1292L8.06238 20.6209L8.92175 21.6957C9.4866 21.8314 10.0613 21.9221 10.6405 21.9668L11.4999 21.3107L12.3591 21.9668C12.9384 21.9221 13.5131 21.8314 14.078 21.6957L14.9374 20.6209L15.7968 21.1292C17.2944 20.4929 18.6219 19.5341 19.6924 18.3401C19.2752 17.1208 18.8066 15.9843 18.4178 15.641Z" fill="#FF5252"/>
<path d="M8.06238 20.6208L8.92176 21.6956C9.48659 21.8313 10.0613 21.922 10.6405 21.9667L11.4999 21.3106L12.3593 21.9668C12.9384 21.9222 13.5132 21.8316 14.078 21.696V21.6956L14.9374 20.6208L15.7962 21.1288C16.2657 20.9294 16.7208 20.6975 17.158 20.4348C16.7718 20.4757 16.3837 20.4962 15.9953 20.4964C11.866 20.4964 8.2688 18.2207 6.38763 14.8554C5.60917 15.0841 4.90805 15.353 4.58191 15.6409C4.19313 15.9842 3.72451 17.1207 3.30737 18.3399C4.37781 19.534 5.70537 20.4928 7.20301 21.1291L8.06238 20.6208Z" fill="#F44040"/>
<path d="M10.6406 14.1316V21.9664C10.9243 21.9883 11.2107 22 11.5 22C11.7893 22 12.0757 21.9883 12.3594 21.9664V14.1316H11.5H10.6406Z" fill="#F9D987"/>
<path d="M10.6406 21.9664C10.9243 21.9883 11.2107 22 11.5 22C11.7893 22 12.0758 21.9884 12.3594 21.9665V19.8805C11.7653 19.6724 11.1902 19.4135 10.6406 19.1065L10.6406 21.9664Z" fill="#FFCB37"/>
<path d="M7.20312 21.1288C7.75937 21.3649 8.33426 21.5544 8.92187 21.6953V14.2589C8.46778 14.3463 7.84357 14.4754 7.20312 14.6351V21.1288Z" fill="#F9D987"/>
<path d="M7.20313 21.1288C7.75937 21.3649 8.33426 21.5544 8.92187 21.6953V17.9194C8.28232 17.3817 7.70573 16.7732 7.20312 16.1056L7.20313 21.1288Z" fill="#FFCB37"/>
<path d="M14.0781 21.6953C14.6657 21.5544 15.2406 21.3649 15.7969 21.1288V14.6351C15.1564 14.4754 14.5322 14.3463 14.0781 14.2589V21.6953Z" fill="#F9D987"/>
<path d="M14.0781 21.6953C14.6658 21.5541 15.2407 21.3643 15.7969 21.1279V20.4939C15.2205 20.4838 14.6459 20.4287 14.0781 20.3289L14.0781 21.6953Z" fill="#FFCB37"/>
<path d="M11.4999 15.457C13.3836 15.457 14.2428 14.7336 14.5633 14.3557C13.8751 14.2136 13.3774 14.1316 13.3774 14.1316H9.62238C9.62238 14.1316 9.12471 14.2136 8.43652 14.3557C8.75694 14.7336 9.61619 15.457 11.4999 15.457Z" fill="#FFCB37"/>
<path d="M14.4681 7.89162C14.4681 7.89162 14.8504 6.96083 15.5318 7.17692C16.2133 7.39297 15.5154 9.41001 14.1855 9.53711L14.4681 7.89162Z" fill="#F9BD91"/>
<path d="M8.53195 7.89162C8.53195 7.89162 8.14965 6.96083 7.46821 7.17692C6.78673 7.39301 7.48467 9.41001 8.81451 9.53711L8.53195 7.89162Z" fill="#E5A876"/>
<path d="M9.62256 9.31611V14.1316C9.62256 14.8636 10.4632 15.457 11.5001 15.457C12.537 15.457 13.3776 14.8636 13.3776 14.1316V9.31611H9.62256Z" fill="#F9BD91"/>
<path d="M9.62256 9.31633V14.1318C11.6392 14.1318 12.7699 12.5841 12.7699 12.5841L13.3776 9.31633H9.62256Z" fill="#E5A876"/>
<path d="M17.6523 18.7446L17.1575 20.4346C17.4728 20.2452 17.7785 20.0402 18.0733 19.8202V18.8049C18.0733 18.5566 17.7221 18.5063 17.6523 18.7446Z" fill="#F44040"/>
<path d="M4.92676 18.8049V19.8202C5.2216 20.0402 5.52726 20.2452 5.84259 20.4346L5.34781 18.7446C5.27803 18.5063 4.92676 18.5566 4.92676 18.8049Z" fill="#D62B2B"/>
<path d="M14.5633 6.71775C14.3754 6.2594 14.3618 4.85518 13.8632 4.65525C13.3647 4.45531 12.9466 4.999 11.5 4.999C10.0534 4.999 9.63524 4.45531 9.13668 4.65525C8.63811 4.85518 8.62457 6.2594 8.43663 6.71775C8.26153 7.14477 8.04153 7.23178 8.01227 7.24171C8.01012 7.30848 8.00879 7.37564 8.00879 7.4434C8.00879 10.0143 9.57186 13.0293 11.5 13.0293C13.4281 13.0293 14.9912 10.0143 14.9912 7.4434C14.9912 7.37564 14.9898 7.30848 14.9877 7.24171C14.9584 7.23178 14.7384 7.14477 14.5633 6.71775Z" fill="#FCD2AE"/>
<path d="M9.20934 7.4434C9.20934 6.39462 9.47007 5.46675 9.90904 4.73491C9.59111 4.63273 9.37283 4.5605 9.13668 4.65525C8.63811 4.85518 8.62457 6.2594 8.43663 6.71775C8.26149 7.14477 8.04153 7.23178 8.01227 7.24171C8.01012 7.30844 8.00879 7.3756 8.00879 7.4434C8.00879 10.0142 9.57182 13.0293 11.5 13.0293C11.7047 13.0293 11.9052 12.995 12.1002 12.9312C10.4582 12.3938 9.20934 9.74129 9.20934 7.4434Z" fill="#F9BD91"/>
</g>
</svg>
