<svg width="20" height="20" viewBox="0 0 20 20" fill="none" xmlns="http://www.w3.org/2000/svg">
<path d="M19.8177 10.4911L19.0199 11.4167C18.935 11.5152 18.8771 11.634 18.8518 11.7616C18.8265 11.8891 18.8347 12.021 18.8755 12.1445L19.2593 13.3029C19.3161 13.4745 19.3092 13.6607 19.2401 13.8275C19.1709 13.9944 19.044 14.1309 18.8825 14.2119L17.7919 14.7592C17.6756 14.8175 17.5764 14.9051 17.5041 15.0132C17.4317 15.1214 17.3886 15.2465 17.3791 15.3763L17.2892 16.5943C17.276 16.7742 17.1985 16.9434 17.0709 17.0709C16.9434 17.1985 16.7742 17.276 16.5943 17.2892L15.3763 17.3791C15.2465 17.3887 15.1214 17.4318 15.0133 17.5041C14.9051 17.5765 14.8176 17.6756 14.7592 17.7919L14.2119 18.8825C14.1309 19.044 13.9945 19.1709 13.8276 19.2401C13.6607 19.3092 13.4744 19.316 13.3029 19.2591L12.1445 18.8754C12.0211 18.8345 11.8891 18.8263 11.7616 18.8516C11.634 18.8769 11.5152 18.9348 11.4167 19.0197L10.4913 19.8176C10.3547 19.9353 10.1804 20 10.0001 20C9.81977 20 9.64546 19.9353 9.50888 19.8176L8.58329 19.0197C8.48478 18.9349 8.36596 18.877 8.23842 18.8517C8.11087 18.8264 7.97895 18.8345 7.8555 18.8754L6.69705 19.2591C6.52556 19.3159 6.33937 19.3091 6.17248 19.24C6.0056 19.1708 5.86915 19.0439 5.78808 18.8825L5.24084 17.7919C5.18247 17.6756 5.09493 17.5764 4.98677 17.5041C4.8786 17.4317 4.75351 17.3886 4.62373 17.3791L3.40566 17.2892C3.22577 17.2759 3.05664 17.1985 2.92909 17.0709C2.80154 16.9434 2.72407 16.7742 2.71078 16.5943L2.62089 15.3763C2.61133 15.2465 2.56828 15.1214 2.49592 15.0132C2.42357 14.9051 2.3244 14.8175 2.20809 14.7592L1.11749 14.2119C0.956013 14.1309 0.829095 13.9945 0.75994 13.8276C0.690784 13.6607 0.684012 13.4744 0.740861 13.3029L1.12463 12.1445C1.16553 12.0211 1.17373 11.8891 1.14843 11.7616C1.12312 11.634 1.06518 11.5152 0.98025 11.4167L0.182437 10.4913C0.0647395 10.3547 0 10.1804 0 10.0001C0 9.81977 0.0647395 9.64547 0.182437 9.50888L0.98025 8.5833C1.06512 8.48478 1.12303 8.36597 1.14833 8.23842C1.17363 8.11088 1.16547 7.97895 1.12463 7.8555L0.740861 6.69705C0.68409 6.52554 0.690918 6.33934 0.760096 6.17245C0.829274 6.00556 0.956181 5.86913 1.11764 5.78808L2.20825 5.24084C2.32456 5.18247 2.42374 5.09493 2.4961 4.98677C2.56845 4.8786 2.61151 4.75351 2.62105 4.62373L2.71094 3.40567C2.72422 3.22577 2.8017 3.05664 2.92925 2.92909C3.0568 2.80154 3.22593 2.72407 3.40582 2.71078L4.62389 2.62089C4.75366 2.6113 4.87872 2.56823 4.98688 2.49588C5.09504 2.42353 5.18259 2.32438 5.24099 2.20809L5.78824 1.11749C5.86926 0.956012 6.00569 0.829094 6.1726 0.759939C6.3395 0.690783 6.52572 0.684011 6.6972 0.74086L7.85565 1.12463C7.9791 1.16553 8.11104 1.17373 8.2386 1.14842C8.36615 1.12312 8.48497 1.06518 8.58345 0.98025L9.50888 0.182438C9.64546 0.0647407 9.81977 0 10.0001 0C10.1804 0 10.3547 0.0647407 10.4913 0.182438L11.4169 0.98025C11.5154 1.06512 11.6342 1.12303 11.7617 1.14833C11.8893 1.17364 12.0212 1.16547 12.1447 1.12463L13.3031 0.74086C13.4746 0.684078 13.6608 0.690882 13.8277 0.760031C13.9946 0.82918 14.131 0.956057 14.2121 1.11749L14.7595 2.20809C14.8178 2.32438 14.9053 2.42355 15.0135 2.4959C15.1216 2.56826 15.2467 2.61132 15.3764 2.62089L16.5945 2.71078C16.7744 2.72407 16.9435 2.80154 17.0711 2.92909C17.1986 3.05664 17.2761 3.22577 17.2894 3.40567L17.3793 4.62373C17.3888 4.75351 17.4319 4.87859 17.5042 4.98675C17.5766 5.09492 17.6758 5.18246 17.7921 5.24084L18.8827 5.78808C19.0441 5.86913 19.171 6.00556 19.2402 6.17245C19.3094 6.33934 19.3162 6.52554 19.2594 6.69705L18.8757 7.8555C18.8348 7.97894 18.8266 8.11088 18.8519 8.23844C18.8772 8.366 18.9351 8.48481 19.0201 8.5833L19.8179 9.50872C19.9355 9.64534 20.0002 9.81966 20.0002 9.99995C20.0001 10.1802 19.9354 10.3545 19.8177 10.4911Z" fill="#0059E7"/>
<path d="M7.8559 1.12406L6.69745 0.740289C6.52596 0.683507 6.33976 0.690312 6.17288 0.75946C6.00599 0.828609 5.86955 0.955486 5.78848 1.11692L5.24123 2.20753C5.18287 2.32384 5.09533 2.42301 4.98716 2.49537C4.879 2.56772 4.75391 2.61078 4.62413 2.62033L3.40607 2.71021C3.22616 2.72346 3.05701 2.80093 2.92945 2.92848C2.8019 3.05604 2.72443 3.22519 2.71118 3.4051L2.62129 4.62316C2.61173 4.75294 2.56867 4.87802 2.49632 4.98618C2.42396 5.09434 2.32479 5.18189 2.20849 5.24026L1.11788 5.78751C0.956403 5.86853 0.829475 6.00496 0.760293 6.17186C0.691111 6.33876 0.684296 6.52497 0.7411 6.69648L1.12487 7.85493C1.16579 7.97837 1.17399 8.11031 1.14869 8.23787C1.12338 8.36543 1.06543 8.48425 0.980494 8.58272L0.182681 9.5083C0.0649836 9.64489 0.000244141 9.8192 0.000244141 9.99951C0.000244141 10.1798 0.0649836 10.3541 0.182681 10.4907L0.980338 11.4161C1.06525 11.5146 1.12319 11.6334 1.14849 11.761C1.17379 11.8885 1.1656 12.0205 1.12472 12.1439L0.740949 13.3024C0.684178 13.4739 0.691006 13.6601 0.760184 13.827C0.829362 13.9939 0.956269 14.1303 1.11773 14.2113L2.20834 14.7586C2.32465 14.817 2.42383 14.9045 2.49619 15.0127C2.56854 15.1208 2.61159 15.2459 2.62114 15.3757L2.71102 16.5938C2.72431 16.7737 2.80178 16.9428 2.92933 17.0703C3.05688 17.1979 3.22602 17.2754 3.40591 17.2886L4.62397 17.3785C4.75375 17.3881 4.87883 17.4311 4.987 17.5035C5.09516 17.5759 5.1827 17.675 5.24108 17.7913L5.78832 18.8819C5.86937 19.0434 6.0058 19.1703 6.17269 19.2395C6.33958 19.3087 6.52578 19.3155 6.69729 19.2587L7.85574 18.875C7.97918 18.834 8.11113 18.8258 8.23868 18.8512C8.36624 18.8765 8.48506 18.9344 8.58354 19.0193L9.50912 19.8171C9.6457 19.9348 9.82001 19.9996 10.0003 19.9996C10.1806 19.9996 10.3549 19.9348 10.4915 19.8171L11.4169 19.0193C11.5155 18.9345 11.6343 18.8766 11.7618 18.8513C11.8894 18.826 12.0213 18.8341 12.1447 18.875L13.3032 19.2587C13.4747 19.3155 13.6609 19.3087 13.8278 19.2395C13.9946 19.1704 14.1311 19.0435 14.2122 18.8821L14.7594 17.7915C14.8178 17.6752 14.9053 17.576 15.0135 17.5036C15.1216 17.4313 15.2467 17.3882 15.3765 17.3787L16.5946 17.2888C16.7745 17.2755 16.9436 17.1981 17.0712 17.0705C17.1987 16.943 17.2762 16.7738 17.2895 16.5939C11.1299 15.4943 13.0518 10.7507 13.0518 10.7507L11.7052 8.60213C5.7964 7.09189 8.58354 0.979834 8.58354 0.979834C8.48506 1.06471 8.36626 1.12261 8.23873 1.14788C8.1112 1.17316 7.97931 1.16495 7.8559 1.12406Z" fill="#0059E7"/>
<path d="M9.46313 13.8276C9.13538 13.8276 8.82106 13.6974 8.58924 13.4658L5.8493 10.7257C5.61946 10.4935 5.49089 10.1798 5.4917 9.85312C5.49252 9.52645 5.62265 9.21338 5.85364 8.98239C6.08464 8.75139 6.3977 8.62126 6.72438 8.62045C7.05106 8.61963 7.36476 8.7482 7.59691 8.97804L9.46297 10.8443L13.0073 7.29998C13.2394 7.07014 13.5531 6.94157 13.8798 6.94239C14.2065 6.9432 14.5195 7.07333 14.7505 7.30433C14.9815 7.53532 15.1116 7.84839 15.1125 8.17506C15.1133 8.50174 14.9847 8.81545 14.7549 9.04759L10.3367 13.4658C10.105 13.6975 9.79078 13.8276 9.46313 13.8276Z" fill="#E9EFFF"/>
</svg>
