<svg width="33" height="46" viewBox="0 0 33 46" fill="none" xmlns="http://www.w3.org/2000/svg">
<path d="M0.527832 0L32.4723 1.77727e-06L32.4723 42.4568C32.4723 43.9799 30.7815 44.8945 29.5067 44.061L15.8612 35.1389L3.55236 43.8576C2.28304 44.7567 0.52783 43.8491 0.52783 42.2936L0.527832 0Z" fill="#0059E7"/>
<path d="M11.1717 16.7634L14.0877 16.7634L14.7177 13.4694L16.2297 13.4694L15.5997 16.7634L17.1837 16.7634L17.1837 18.0954L15.3297 18.0954L14.7176 21.3174L17.1836 21.3174L17.1836 22.6494L14.4656 22.6494L13.8356 25.9434L12.3236 25.9434L12.9536 22.6494L10.0376 22.6494L9.40765 25.9434L7.89565 25.9434L8.52565 22.6494L6.94165 22.6494L6.94165 21.3174L8.77765 21.3174L9.38965 18.0954L6.94165 18.0954L6.94165 16.7634L9.65965 16.7634L10.2897 13.4694L11.8017 13.4694L11.1717 16.7634ZM10.2896 21.3174L13.2056 21.3174L13.8356 18.0954L10.9196 18.0954L10.2896 21.3174ZM22.1335 24.7194C23.2015 24.7194 23.9635 24.5094 24.4195 24.0894C24.8875 23.6694 25.1215 23.1054 25.1215 22.3974C25.1215 21.9414 25.0255 21.5574 24.8335 21.2454C24.6415 20.9334 24.3895 20.6874 24.0775 20.5074C23.7655 20.3154 23.3995 20.1834 22.9795 20.1114C22.5715 20.0274 22.1515 19.9854 21.7195 19.9854L21.2875 19.9854L21.2875 18.6174L21.8815 18.6174C22.1815 18.6174 22.4875 18.5874 22.7995 18.5274C23.1235 18.4674 23.4175 18.3594 23.6815 18.2034C23.9455 18.0474 24.1615 17.8374 24.3295 17.5734C24.4975 17.2974 24.5815 16.9554 24.5815 16.5474C24.5815 16.2114 24.5215 15.9234 24.4015 15.6834C24.2815 15.4434 24.1195 15.2454 23.9155 15.0894C23.7235 14.9334 23.4955 14.8254 23.2315 14.7654C22.9795 14.6934 22.7095 14.6574 22.4215 14.6574C21.8455 14.6574 21.3535 14.7414 20.9455 14.9094C20.5495 15.0774 20.2135 15.2514 19.9375 15.4314L19.2895 14.1534C19.4335 14.0574 19.6135 13.9554 19.8295 13.8474C20.0575 13.7274 20.3095 13.6194 20.5855 13.5234C20.8615 13.4274 21.1555 13.3494 21.4675 13.2894C21.7915 13.2174 22.1275 13.1814 22.4755 13.1814C23.1355 13.1814 23.7055 13.2654 24.1855 13.4334C24.6655 13.5894 25.0615 13.8174 25.3735 14.1174C25.6855 14.4054 25.9195 14.7534 26.0755 15.1614C26.2315 15.5574 26.3095 15.9894 26.3095 16.4574C26.3095 17.1054 26.1235 17.6634 25.7515 18.1314C25.3795 18.5874 24.9295 18.9354 24.4015 19.1754C24.7255 19.2714 25.0375 19.4094 25.3375 19.5894C25.6375 19.7694 25.8955 19.9974 26.1115 20.2734C26.3395 20.5494 26.5195 20.8674 26.6515 21.2274C26.7955 21.5874 26.8675 21.9894 26.8675 22.4334C26.8675 22.9734 26.7715 23.4774 26.5795 23.9454C26.3995 24.4014 26.1115 24.7974 25.7155 25.1334C25.3315 25.4694 24.8455 25.7334 24.2575 25.9254C23.6695 26.1174 22.9735 26.2134 22.1695 26.2134C21.8575 26.2134 21.5335 26.1894 21.1975 26.1414C20.8735 26.0934 20.5675 26.0334 20.2795 25.9614C19.9915 25.8894 19.7395 25.8174 19.5235 25.7454C19.3075 25.6734 19.1515 25.6134 19.0555 25.5654L19.3795 24.1074C19.5835 24.2034 19.9195 24.3294 20.3875 24.4854C20.8675 24.6414 21.4495 24.7194 22.1335 24.7194Z" fill="white"/>
</svg>
