<svg width="335" height="332" viewBox="0 0 335 332" fill="none" xmlns="http://www.w3.org/2000/svg">
<mask id="mask0_935_2927" style="mask-type:alpha" maskUnits="userSpaceOnUse" x="-26" y="-8" width="386" height="374">
<path d="M359.746 179C359.746 282.277 273.451 366 167 366C60.5495 366 -25.7458 282.277 -25.7458 179C-25.7458 75.7228 60.5495 -8 167 -8C273.451 -8 359.746 75.7228 359.746 179Z" fill="#D9D9D9"/>
</mask>
<g mask="url(#mask0_935_2927)">
<path d="M209.629 231.692H125.424C117.916 231.692 111.833 225.633 111.833 218.154V13.5671C111.833 6.08874 117.916 0.029541 125.424 0.029541H209.629C217.136 0.029541 223.219 6.08874 223.219 13.5671V218.148C223.219 225.633 217.136 231.692 209.629 231.692Z" fill="#04161C"/>
<mask id="mask1_935_2927" style="mask-type:luminance" maskUnits="userSpaceOnUse" x="116" y="5" width="103" height="222">
<path d="M218.121 13.302V218.426C218.121 222.949 214.435 226.62 209.895 226.62H125.151C120.611 226.62 116.925 222.949 116.925 218.426V13.302C116.925 8.77304 120.611 5.10791 125.151 5.10791H145.747V5.53983C145.747 9.68007 149.117 13.0367 153.285 13.0367H181.773C185.936 13.0367 189.299 9.68007 189.299 5.53983V5.10791H209.901C214.442 5.10791 218.121 8.76687 218.121 13.302Z" fill="white"/>
</mask>
<g mask="url(#mask1_935_2927)">
<path d="M226.186 -2.35205H106.314V239.646H226.186V-2.35205Z" fill="url(#paint0_linear_935_2927)"/>
</g>
<mask id="mask2_935_2927" style="mask-type:luminance" maskUnits="userSpaceOnUse" x="116" y="5" width="103" height="222">
<path d="M218.121 13.302V218.426C218.121 222.949 214.435 226.62 209.895 226.62H125.151C120.611 226.62 116.925 222.949 116.925 218.426V13.302C116.925 8.77304 120.611 5.10791 125.151 5.10791H145.747V5.53983C145.747 9.68007 149.117 13.0367 153.285 13.0367H181.773C185.936 13.0367 189.299 9.68007 189.299 5.53983V5.10791H209.901C214.442 5.10791 218.121 8.76687 218.121 13.302Z" fill="white"/>
</mask>
<g mask="url(#mask2_935_2927)">
<path d="M181.401 105.474C182.306 105.474 183.204 105.474 184.3 105.474C184.3 107.442 184.3 109.281 184.3 111.212C185.316 111.212 186.14 111.212 187.168 111.212C187.168 109.423 187.168 107.578 187.168 105.535C188.295 105.535 189.243 105.535 190.185 105.535L190.135 105.48C190.135 106.418 190.135 107.355 190.135 108.281C191.25 108.281 192.117 108.281 193.096 108.281C193.096 107.263 193.096 106.374 193.096 105.48L193.047 105.535C193.945 105.535 194.849 105.535 195.939 105.535C195.939 107.436 195.939 109.268 195.939 111.23C196.992 111.28 197.866 111.323 198.813 111.372C198.813 112.298 198.813 113.125 198.813 114.143C197.959 114.18 197.085 114.217 195.958 114.266C195.958 116.222 195.958 118.129 195.958 120.035L196.014 119.986C194.1 119.986 192.179 119.986 190.234 119.986C190.172 118.912 190.123 118.036 190.067 117.055C189.064 117.055 188.234 117.055 187.348 117.055C187.28 116.062 187.218 115.192 187.156 114.34C186.158 114.34 185.291 114.34 184.3 114.34C184.3 115.297 184.3 116.123 184.3 117.03C183.309 117.092 182.43 117.142 181.5 117.197C181.445 118.184 181.389 119.054 181.346 119.869C180.311 119.869 179.438 119.869 178.577 119.869C178.527 118.9 178.49 118.073 178.447 117.191C177.456 117.129 176.582 117.074 175.529 117.006C175.529 116.012 175.529 115.142 175.529 114.303C174.507 114.303 173.683 114.303 172.791 114.303C172.723 115.26 172.661 116.13 172.587 117.185C171.608 117.185 170.735 117.185 169.744 117.185C169.744 118.197 169.744 119.023 169.744 120.035C167.78 120.035 165.934 120.035 164.088 120.035C164.088 121.097 164.088 121.96 164.088 123.009C166.052 123.009 167.898 123.009 169.688 123.009C169.688 124.028 169.688 124.848 169.688 125.86C167.749 125.86 165.903 125.86 163.94 125.86C163.94 126.946 163.94 127.847 163.94 128.748L163.989 128.692C163.085 128.692 162.187 128.692 161.078 128.692C161.078 124.78 161.078 120.936 161.078 117.092L161.022 117.142C161.97 117.142 162.911 117.142 163.983 117.142C163.983 114.05 163.983 111.218 163.983 108.386L163.933 108.435C164.918 108.417 165.903 108.398 166.888 108.38C166.888 109.318 166.888 110.256 166.888 111.193C167.947 111.193 168.814 111.193 169.651 111.193C169.651 110.212 169.651 109.348 169.651 108.429C168.629 108.429 167.73 108.429 166.832 108.429C166.832 104.585 166.832 100.741 166.832 96.7797C165.73 96.7797 164.832 96.7797 163.927 96.7797L163.983 96.829C163.983 94.9718 163.983 93.1145 163.983 91.1277C164.912 91.1277 165.779 91.1277 166.77 91.1277C166.832 91.9792 166.888 92.8492 166.956 93.8056C167.842 93.8056 168.666 93.8056 169.682 93.8056C169.731 92.985 169.793 92.115 169.855 91.0845C170.729 91.0352 171.602 90.9858 172.587 90.9303C172.649 90.0171 172.711 89.1471 172.779 88.1907C173.658 88.1907 174.488 88.1907 175.461 88.1907C175.461 89.9739 175.461 91.8003 175.461 93.8118C174.656 93.8611 173.789 93.9105 172.661 93.9722C172.661 94.9409 172.661 95.8788 172.661 96.8167L172.711 96.7673C171.813 96.7673 170.914 96.7673 169.898 96.7673C169.898 99.6797 169.898 102.475 169.898 105.474C170.834 105.474 171.769 105.474 172.711 105.474C172.711 107.374 172.711 109.274 172.711 111.187C173.77 111.187 174.631 111.187 175.48 111.187C175.48 109.237 175.48 107.411 175.48 105.529C174.457 105.529 173.559 105.529 172.661 105.529C172.661 104.634 172.661 103.74 172.661 102.722C175.585 102.722 178.391 102.722 181.457 102.722C181.457 103.647 181.457 104.585 181.457 105.523C180.515 105.523 179.574 105.523 178.632 105.523C178.632 106.578 178.632 107.442 178.632 108.275C179.617 108.275 180.485 108.275 181.407 108.275C181.401 107.263 181.401 106.368 181.401 105.474ZM178.601 111.379C178.601 112.403 178.601 113.223 178.601 114.106C179.555 114.106 180.423 114.106 181.308 114.106C181.308 113.137 181.308 112.273 181.308 111.379C180.361 111.379 179.537 111.379 178.601 111.379ZM192.991 111.403C191.956 111.403 191.132 111.403 190.271 111.403C190.271 112.366 190.271 113.23 190.271 114.081C191.256 114.081 192.124 114.081 192.991 114.081C192.991 113.131 192.991 112.31 192.991 111.403Z" fill="white"/>
<path d="M195.958 134.492C195.958 135.387 195.958 136.288 195.958 137.324C196.949 137.38 197.822 137.435 198.795 137.491C198.795 138.416 198.795 139.28 198.795 140.224C194.948 140.224 191.17 140.224 187.273 140.224C187.273 139.305 187.273 138.484 187.273 137.54C186.282 137.54 185.415 137.54 184.424 137.54C184.368 138.41 184.319 139.28 184.257 140.23C181.407 140.23 178.645 140.23 175.69 140.23C175.64 139.391 175.585 138.521 175.529 137.534C174.631 137.534 173.764 137.534 172.76 137.534C172.711 138.41 172.667 139.28 172.618 140.23C171.689 140.23 170.865 140.23 169.843 140.23C169.843 138.416 169.843 136.578 169.843 134.486C168.721 134.486 167.78 134.486 166.838 134.486L166.888 134.541C166.888 133.56 166.888 132.573 166.888 131.592L166.838 131.641C167.78 131.641 168.721 131.641 169.706 131.641C169.768 130.531 169.818 129.661 169.867 128.686C170.92 128.686 171.819 128.686 172.711 128.686C172.711 130.592 172.711 132.493 172.711 134.387C173.776 134.387 174.637 134.387 175.572 134.387C175.572 132.4 175.572 130.543 175.572 128.686C176.557 128.686 177.548 128.686 178.533 128.686C178.533 129.624 178.533 130.562 178.533 131.493C179.599 131.493 180.466 131.493 181.395 131.493C181.395 130.475 181.395 129.58 181.395 128.686C182.38 128.686 183.371 128.686 184.356 128.686C184.356 130.592 184.356 132.493 184.356 134.387C185.421 134.387 186.282 134.387 187.218 134.387C187.218 132.4 187.218 130.543 187.218 128.686C188.202 128.704 189.194 128.723 190.178 128.741L190.129 128.692C190.129 129.636 190.129 130.574 190.129 131.641C191.287 131.641 192.192 131.641 193.09 131.641L193.04 131.592C193.059 132.573 193.077 133.554 193.096 134.541C192.154 134.541 191.213 134.541 190.271 134.541C190.271 135.596 190.271 136.46 190.271 137.293C191.262 137.293 192.123 137.293 193.046 137.293C193.046 136.275 193.046 135.381 193.046 134.486C194.031 134.504 195.016 134.523 196.007 134.541L195.958 134.492ZM181.327 137.336C181.327 136.386 181.327 135.522 181.327 134.634C180.354 134.634 179.487 134.634 178.645 134.634C178.645 135.615 178.645 136.479 178.645 137.336C179.599 137.336 180.429 137.336 181.327 137.336Z" fill="white"/>
<path d="M157.999 99.6242C151.223 99.6242 144.576 99.6242 137.837 99.6242C137.837 92.9233 137.837 86.3026 137.837 79.54C144.496 79.54 151.179 79.54 157.999 79.54C157.999 86.1607 157.999 92.8184 157.999 99.6242ZM155.131 82.4277C150.238 82.4277 145.493 82.4277 140.798 82.4277C140.798 87.2837 140.798 92.0163 140.798 96.7057C145.648 96.7057 150.349 96.7057 155.131 96.7057C155.131 91.9299 155.131 87.2405 155.131 82.4277Z" fill="white"/>
<path d="M198.77 99.6242C191.993 99.6242 185.347 99.6242 178.608 99.6242C178.608 92.9233 178.608 86.3088 178.608 79.54C185.26 79.54 191.95 79.54 198.77 79.54C198.77 86.1546 198.77 92.8184 198.77 99.6242ZM195.865 96.718C195.865 91.8621 195.865 87.1295 195.865 82.4401C190.996 82.4401 186.245 82.4401 181.519 82.4401C181.519 87.2652 181.519 91.9484 181.519 96.718C186.313 96.718 191.015 96.718 195.865 96.718Z" fill="white"/>
<path d="M158.043 120.14C158.043 126.89 158.043 133.511 158.043 140.224C151.316 140.224 144.669 140.224 137.88 140.224C137.88 133.591 137.88 126.927 137.88 120.14C144.527 120.14 151.217 120.14 158.043 120.14ZM155.131 123.009C150.213 123.009 145.512 123.009 140.767 123.009C140.767 127.834 140.767 132.561 140.767 137.287C145.629 137.287 150.374 137.287 155.131 137.287C155.131 132.474 155.131 127.791 155.131 123.009Z" fill="white"/>
<path d="M161.065 117.086C156.283 117.086 151.501 117.086 146.596 117.086C146.596 116.136 146.596 115.272 146.596 114.278C147.444 114.235 148.274 114.198 149.302 114.149C149.302 112.322 149.302 110.484 149.302 108.435C150.436 108.435 151.378 108.435 152.325 108.435L152.276 108.38C152.276 109.324 152.276 110.262 152.276 111.28C153.44 111.28 154.338 111.28 155.243 111.28C155.243 112.218 155.243 113.155 155.243 114.081C156.308 114.081 157.175 114.081 158.105 114.081C158.105 113.063 158.105 112.168 158.105 111.273C159.052 111.273 159.994 111.273 161.016 111.273C161.016 113.402 161.016 115.266 161.016 117.129L161.065 117.086Z" fill="white"/>
<path d="M152.325 108.435C152.325 107.534 152.325 106.639 152.325 105.603C151.334 105.547 150.461 105.492 149.488 105.436C149.488 104.504 149.488 103.641 149.488 102.653C153.298 102.653 157.027 102.653 160.96 102.653C160.96 100.704 160.96 98.8709 160.96 96.8348C162.087 96.8348 163.035 96.8348 163.977 96.8348L163.921 96.7854C163.921 100.673 163.921 104.554 163.921 108.441L163.971 108.392C163.029 108.392 162.087 108.392 161.109 108.392C161.047 107.343 160.991 106.473 160.942 105.64C158.953 105.64 157.12 105.64 155.237 105.64C155.237 106.658 155.237 107.546 155.237 108.441C154.245 108.423 153.261 108.41 152.27 108.392L152.325 108.435Z" fill="white"/>
<path d="M143.597 111.329C143.597 109.465 143.597 107.602 143.597 105.621C142.582 105.621 141.714 105.621 140.717 105.621C140.68 106.473 140.643 107.3 140.599 108.268C139.72 108.268 138.853 108.268 137.855 108.268C137.855 106.473 137.855 104.64 137.855 102.703C140.655 102.703 143.418 102.703 146.329 102.703C146.329 105.467 146.329 108.262 146.329 111.273C145.425 111.273 144.483 111.273 143.542 111.273L143.597 111.329Z" fill="white"/>
<path d="M166.838 134.492C166.838 136.349 166.838 138.207 166.838 140.193C164.943 140.193 163.116 140.193 161.158 140.193C161.158 137.423 161.158 134.64 161.158 131.648C162.094 131.648 163.035 131.648 163.977 131.648L163.927 131.592C163.927 132.536 163.927 133.474 163.927 134.541C165.085 134.541 165.99 134.541 166.888 134.541L166.838 134.492Z" fill="white"/>
<path d="M195.958 122.886C195.958 123.867 195.958 124.854 195.958 125.835L196.014 125.786C195.066 125.786 194.124 125.786 193.053 125.786C193.053 126.94 193.053 127.84 193.053 128.735L193.102 128.686C192.117 128.686 191.126 128.686 190.141 128.686L190.191 128.735C190.191 126.829 190.191 124.922 190.191 122.935C192.278 122.935 194.143 122.935 196.014 122.935L195.958 122.886Z" fill="white"/>
<path d="M143.542 111.28C143.542 113.143 143.542 115 143.542 116.987C141.628 116.987 139.788 116.987 137.843 116.987C137.843 116.111 137.843 115.247 137.843 114.26C138.729 114.26 139.559 114.26 140.575 114.26C140.575 113.273 140.575 112.409 140.575 111.329C141.702 111.329 142.65 111.329 143.591 111.329C143.597 111.329 143.542 111.28 143.542 111.28Z" fill="white"/>
<path d="M175.467 85.1302C174.538 85.1302 173.714 85.1302 172.785 85.1302C172.785 83.2297 172.785 81.3972 172.785 79.4844C173.683 79.4844 174.507 79.4844 175.467 79.4844C175.467 81.2984 175.467 83.131 175.467 85.1302Z" fill="white"/>
<path d="M172.655 96.8287C173.553 96.8287 174.445 96.8287 175.473 96.8287C175.473 97.748 175.473 98.6057 175.473 99.5929C174.637 99.5929 173.77 99.5929 172.711 99.5929C172.711 98.655 172.711 97.7172 172.711 96.7793C172.711 96.7731 172.655 96.8287 172.655 96.8287Z" fill="white"/>
<path d="M190.185 105.535C190.185 104.641 190.185 103.746 190.185 102.728C191.114 102.728 191.981 102.728 193.047 102.728C193.047 103.653 193.047 104.597 193.047 105.535L193.096 105.48C192.111 105.48 191.12 105.48 190.135 105.48L190.185 105.535Z" fill="white"/>
<path d="M195.958 120.035C196.856 120.035 197.754 120.035 198.776 120.035C198.776 120.961 198.776 121.825 198.776 122.886C197.847 122.886 196.899 122.886 195.958 122.886L196.014 122.935C196.014 121.954 196.014 120.967 196.014 119.986L195.958 120.035Z" fill="white"/>
<path d="M163.977 131.641C163.977 130.654 163.977 129.673 163.977 128.686L163.927 128.741C164.875 128.741 165.823 128.741 166.838 128.741C166.838 129.846 166.838 130.747 166.838 131.641L166.888 131.592C165.903 131.592 164.912 131.592 163.927 131.592L163.977 131.641Z" fill="white"/>
<path d="M169.694 79.5212C169.694 80.4838 169.694 81.3044 169.694 82.2176C168.79 82.2176 167.966 82.2176 166.999 82.2176C166.999 81.3785 166.999 80.5147 166.999 79.5212C167.829 79.5212 168.697 79.5212 169.694 79.5212Z" fill="white"/>
<path d="M161.127 85.272C162.063 85.272 162.887 85.272 163.834 85.272C163.834 86.1605 163.834 87.0305 163.834 87.9992C162.955 87.9992 162.087 87.9992 161.127 87.9992C161.127 87.1169 161.127 86.2962 161.127 85.272Z" fill="white"/>
<path d="M195.958 128.692C195.958 129.673 195.958 130.66 195.958 131.641L196.014 131.592C195.029 131.592 194.038 131.592 193.053 131.592L193.102 131.641C193.102 130.66 193.102 129.673 193.102 128.692L193.053 128.741C194.038 128.741 195.029 128.741 196.014 128.741L195.958 128.692Z" fill="white"/>
<path d="M195.958 131.641C196.856 131.641 197.754 131.641 198.776 131.641C198.776 132.567 198.776 133.431 198.776 134.492C197.847 134.492 196.899 134.492 195.958 134.492L196.014 134.541C196.014 133.56 196.014 132.573 196.014 131.592L195.958 131.641Z" fill="white"/>
<path d="M169.682 88.0239C168.771 88.0239 167.947 88.0239 166.993 88.0239C166.993 87.1601 166.993 86.2963 166.993 85.3152C167.848 85.3152 168.715 85.3152 169.682 85.3152C169.682 86.1667 169.682 86.9873 169.682 88.0239Z" fill="white"/>
<path d="M195.958 125.841C196.856 125.841 197.754 125.841 198.776 125.841C198.776 126.767 198.776 127.631 198.776 128.692C197.847 128.692 196.899 128.692 195.958 128.692L196.014 128.741C196.014 127.76 196.014 126.773 196.014 125.792L195.958 125.841Z" fill="white"/>
<path d="M181.451 128.742C180.466 128.742 179.475 128.742 178.49 128.742C178.49 126.884 178.49 125.027 178.49 123.04C179.475 123.04 180.336 123.04 181.451 123.04C181.451 124.935 181.451 126.835 181.451 128.742Z" fill="white"/>
<path d="M172.81 120.097C173.776 120.097 174.6 120.097 175.517 120.097C175.517 120.998 175.517 121.818 175.517 122.781C174.674 122.781 173.807 122.781 172.81 122.781C172.81 121.948 172.81 121.09 172.81 120.097Z" fill="white"/>
<path d="M187.218 120.158C187.218 121.084 187.218 121.861 187.218 122.775C186.319 122.775 185.452 122.775 184.461 122.775C184.461 121.954 184.461 121.09 184.461 120.158C185.384 120.158 186.295 120.158 187.218 120.158Z" fill="white"/>
<path d="M175.628 128.741C174.643 128.741 173.652 128.741 172.667 128.741C172.667 127.847 172.667 126.952 172.667 125.94C173.646 125.94 174.513 125.94 175.628 125.94C175.628 126.865 175.628 127.803 175.628 128.741Z" fill="white"/>
<path d="M187.273 128.741C186.288 128.741 185.297 128.741 184.312 128.741C184.312 127.847 184.312 126.952 184.312 125.94C185.291 125.94 186.158 125.94 187.273 125.94C187.273 126.865 187.273 127.803 187.273 128.741Z" fill="white"/>
<path d="M155.187 111.335C155.187 110.354 155.187 109.367 155.187 108.386C156.091 108.386 156.99 108.386 158.148 108.386C158.148 109.453 158.148 110.397 158.148 111.335C157.163 111.335 156.178 111.335 155.187 111.335Z" fill="white"/>
<path d="M152.164 93.8363C149.309 93.8363 146.546 93.8363 143.678 93.8363C143.678 90.9733 143.678 88.1781 143.678 85.2966C146.503 85.2966 149.265 85.2966 152.164 85.2966C152.164 88.0671 152.164 90.8622 152.164 93.8363Z" fill="white"/>
<path d="M192.941 93.8239C190.055 93.8239 187.292 93.8239 184.436 93.8239C184.436 90.9979 184.436 88.246 184.436 85.3459C187.199 85.3459 190.005 85.3459 192.941 85.3459C192.941 88.0855 192.941 90.8807 192.941 93.8239Z" fill="white"/>
<path d="M143.604 134.362C143.604 131.505 143.604 128.797 143.604 125.946C146.441 125.946 149.247 125.946 152.177 125.946C152.177 128.71 152.177 131.505 152.177 134.362C149.309 134.362 146.465 134.362 143.604 134.362Z" fill="white"/>
</g>
<mask id="mask3_935_2927" style="mask-type:luminance" maskUnits="userSpaceOnUse" x="116" y="5" width="103" height="222">
<path d="M218.121 13.302V218.426C218.121 222.949 214.435 226.62 209.895 226.62H125.151C120.611 226.62 116.925 222.949 116.925 218.426V13.302C116.925 8.77304 120.611 5.10791 125.151 5.10791H145.747V5.53983C145.747 9.68007 149.117 13.0367 153.285 13.0367H181.773C185.936 13.0367 189.299 9.68007 189.299 5.53983V5.10791H209.901C214.442 5.10791 218.121 8.76687 218.121 13.302Z" fill="white"/>
</mask>
<g mask="url(#mask3_935_2927)">
<path d="M127.335 7.91049V10.803H126.985V8.2777H126.968L126.261 8.7466V8.39069L126.985 7.91049H127.335ZM129.127 10.8425C129.008 10.8406 128.89 10.818 128.771 10.7747C128.653 10.7314 128.544 10.6584 128.446 10.5558C128.348 10.4522 128.27 10.3124 128.211 10.1364C128.151 9.95934 128.122 9.73713 128.122 9.46972C128.122 9.21362 128.146 8.9867 128.194 8.78897C128.242 8.5903 128.311 8.42317 128.403 8.28759C128.494 8.15106 128.604 8.04749 128.733 7.97687C128.863 7.90626 129.009 7.87095 129.172 7.87095C129.334 7.87095 129.478 7.90343 129.605 7.9684C129.732 8.03243 129.835 8.12187 129.915 8.23675C129.995 8.35162 130.047 8.48391 130.071 8.63361H129.726C129.694 8.50368 129.632 8.39587 129.54 8.31019C129.447 8.2245 129.325 8.18166 129.172 8.18166C128.948 8.18166 128.772 8.27912 128.643 8.47402C128.515 8.66892 128.45 8.94245 128.449 9.29459H128.472C128.525 9.21456 128.587 9.1463 128.66 9.0898C128.733 9.03237 128.814 8.98811 128.903 8.95704C128.991 8.92597 129.085 8.91043 129.184 8.91043C129.349 8.91043 129.501 8.95186 129.638 9.03472C129.776 9.11664 129.886 9.2301 129.969 9.3751C130.052 9.51916 130.093 9.6844 130.093 9.87083C130.093 10.0497 130.053 10.2136 129.973 10.3623C129.893 10.5102 129.781 10.6278 129.636 10.7154C129.492 10.802 129.322 10.8444 129.127 10.8425ZM129.127 10.5318C129.246 10.5318 129.352 10.5021 129.446 10.4428C129.541 10.3835 129.616 10.3039 129.671 10.2041C129.726 10.1043 129.754 9.99323 129.754 9.87083C129.754 9.75125 129.727 9.6425 129.674 9.54458C129.621 9.44571 129.548 9.36709 129.455 9.30872C129.363 9.25034 129.257 9.22115 129.138 9.22115C129.049 9.22115 128.966 9.23904 128.888 9.27482C128.811 9.30966 128.743 9.35768 128.685 9.41888C128.628 9.48008 128.582 9.55023 128.549 9.62932C128.517 9.70747 128.5 9.78986 128.5 9.87648C128.5 9.99135 128.527 10.0987 128.581 10.1985C128.635 10.2983 128.71 10.3788 128.804 10.44C128.899 10.5012 129.007 10.5318 129.127 10.5318ZM130.897 10.4329C130.827 10.4329 130.768 10.408 130.718 10.3581C130.668 10.3082 130.643 10.2484 130.643 10.1787C130.643 10.109 130.668 10.0493 130.718 9.99935C130.768 9.94945 130.827 9.9245 130.897 9.9245C130.967 9.9245 131.027 9.94945 131.077 9.99935C131.126 10.0493 131.151 10.109 131.151 10.1787C131.151 10.2249 131.14 10.2672 131.116 10.3058C131.093 10.3444 131.063 10.3755 131.024 10.399C130.987 10.4216 130.944 10.4329 130.897 10.4329ZM130.897 8.96975C130.827 8.96975 130.768 8.9448 130.718 8.8949C130.668 8.845 130.643 8.78521 130.643 8.71553C130.643 8.64585 130.668 8.58607 130.718 8.53616C130.768 8.48626 130.827 8.46131 130.897 8.46131C130.967 8.46131 131.027 8.48626 131.077 8.53616C131.126 8.58607 131.151 8.64585 131.151 8.71553C131.151 8.76167 131.14 8.80404 131.116 8.84264C131.093 8.88125 131.063 8.91232 131.024 8.93586C130.987 8.95845 130.944 8.96975 130.897 8.96975ZM131.676 10.2098V9.92167L132.947 7.91049H133.156V8.35679H133.015L132.055 9.87648V9.89908H133.766V10.2098H131.676ZM133.038 10.803V10.1222V9.98805V7.91049H133.371V10.803H133.038ZM127.222 15.8425C127.056 15.8425 126.907 15.8096 126.774 15.7437C126.641 15.6778 126.535 15.5874 126.455 15.4725C126.375 15.3576 126.331 15.2267 126.324 15.0799H126.663C126.676 15.2107 126.735 15.319 126.841 15.4047C126.947 15.4894 127.074 15.5318 127.222 15.5318C127.341 15.5318 127.446 15.504 127.538 15.4485C127.631 15.3929 127.704 15.3167 127.757 15.2197C127.811 15.1218 127.838 15.0111 127.838 14.8878C127.838 14.7616 127.81 14.6491 127.754 14.5502C127.7 14.4504 127.624 14.3718 127.528 14.3144C127.432 14.2569 127.323 14.2277 127.199 14.2268C127.111 14.2259 127.02 14.2395 126.927 14.2678C126.833 14.2951 126.757 14.3304 126.696 14.3737L126.369 14.3341L126.544 12.9105H128.047V13.2212H126.838L126.736 14.0743H126.753C126.812 14.0272 126.887 13.9881 126.976 13.957C127.066 13.926 127.159 13.9104 127.256 13.9104C127.433 13.9104 127.59 13.9528 127.729 14.0375C127.868 14.1213 127.977 14.2362 128.057 14.3822C128.137 14.5281 128.177 14.6948 128.177 14.8821C128.177 15.0667 128.135 15.2314 128.052 15.3764C127.97 15.5205 127.857 15.6344 127.713 15.7182C127.569 15.8011 127.405 15.8425 127.222 15.8425Z" fill="white"/>
<path d="M201.149 9.63647C201.359 9.63647 201.526 9.80307 201.526 10.0129C201.526 10.2226 201.359 10.3892 201.149 10.3892C200.938 10.3892 200.771 10.2226 200.771 10.0129C200.771 9.80307 200.938 9.63647 201.149 9.63647Z" fill="white"/>
<path d="M202.047 9.10568C202.041 9.09951 202.034 9.09334 202.028 9.08717L202.01 9.06866L202.003 9.06249C201.514 8.6244 200.771 8.63674 200.306 9.09951L200.25 9.15504L200.176 9.22908C200.083 9.32164 200.083 9.46972 200.176 9.56227C200.269 9.65483 200.418 9.65483 200.511 9.56227L200.641 9.4327C200.938 9.13653 201.415 9.13653 201.712 9.4327L201.805 9.52525C201.898 9.61781 202.047 9.61781 202.14 9.52525C202.183 9.48206 202.208 9.42036 202.208 9.35866C202.208 9.29696 202.183 9.23525 202.14 9.19206L202.047 9.10568Z" fill="white"/>
<path d="M202.691 8.64333L202.617 8.56312L202.555 8.50141C202.542 8.48907 202.53 8.4829 202.518 8.47056C201.725 7.77332 200.517 7.798 199.743 8.53226C199.743 8.53843 199.736 8.53843 199.73 8.53843L199.588 8.68035C199.501 8.76673 199.507 8.89631 199.588 8.98269C199.674 9.06908 199.811 9.06908 199.891 8.98269L200.034 8.84078C200.034 8.84078 200.034 8.84077 200.034 8.8346C200.653 8.23609 201.644 8.22992 202.27 8.82227L202.381 8.93333C202.468 9.01971 202.604 9.01971 202.685 8.93333C202.778 8.86546 202.778 8.72971 202.691 8.64333Z" fill="white"/>
<path d="M207.448 10.3894C207.293 10.3894 207.169 10.266 207.169 10.1117V7.95832C207.169 7.80407 207.293 7.68066 207.448 7.68066C207.603 7.68066 207.727 7.80407 207.727 7.95832V10.1117C207.733 10.2598 207.603 10.3894 207.448 10.3894Z" fill="white"/>
<path d="M206.352 10.3893C206.197 10.3893 206.073 10.2659 206.073 10.1116V8.93929C206.073 8.78503 206.197 8.66162 206.352 8.66162C206.507 8.66162 206.631 8.78503 206.631 8.93929V10.1116C206.637 10.2597 206.507 10.3893 206.352 10.3893Z" fill="white"/>
<path d="M205.256 10.3896C205.101 10.3896 204.977 10.2662 204.977 10.112V9.38387C204.977 9.22961 205.101 9.1062 205.256 9.1062C205.41 9.1062 205.534 9.22961 205.534 9.38387V10.112C205.54 10.26 205.41 10.3896 205.256 10.3896Z" fill="white"/>
<path d="M204.171 10.3895C204.017 10.3895 203.893 10.2661 203.893 10.1118V9.80329C203.893 9.64904 204.017 9.52563 204.171 9.52563C204.326 9.52563 204.45 9.64904 204.45 9.80329V10.1118C204.456 10.2599 204.326 10.3895 204.171 10.3895Z" fill="white"/>
<path d="M210.936 7.6992V7.45239L210.329 7.45856V7.6992H209.647V9.21709L209.653 10.1796C209.653 10.2907 209.771 10.3894 209.914 10.3894L211.363 10.3833C211.505 10.3833 211.623 10.2907 211.623 10.1735V9.21092V7.69303H210.936V7.6992ZM209.833 7.87814L211.437 7.87197V8.7173L209.833 8.72347V7.87814Z" fill="white"/>
</g>
<mask id="mask4_935_2927" style="mask-type:luminance" maskUnits="userSpaceOnUse" x="116" y="5" width="103" height="222">
<path d="M218.121 13.302V218.426C218.121 222.949 214.435 226.62 209.895 226.62H125.151C120.611 226.62 116.925 222.949 116.925 218.426V13.302C116.925 8.77304 120.611 5.10791 125.151 5.10791H145.747V5.53983C145.747 9.68007 149.117 13.0367 153.285 13.0367H181.773C185.936 13.0367 189.299 9.68007 189.299 5.53983V5.10791H209.901C214.442 5.10791 218.121 8.76687 218.121 13.302Z" fill="white"/>
</mask>
<g mask="url(#mask4_935_2927)">
<path d="M158.85 25.4421H159.895L160.421 26.1183L160.938 26.7205L161.912 27.9421H160.764L160.094 27.1183L159.75 26.6296L158.85 25.4421ZM162 24.5558C162 25.1902 161.88 25.73 161.639 26.1751C161.401 26.6201 161.075 26.9601 160.662 27.195C160.251 27.4279 159.789 27.5444 159.276 27.5444C158.759 27.5444 158.295 27.427 157.884 27.1921C157.473 26.9573 157.148 26.6173 156.909 26.1722C156.671 25.7272 156.551 25.1883 156.551 24.5558C156.551 23.9213 156.671 23.3815 156.909 22.9364C157.148 22.4914 157.473 22.1523 157.884 21.9194C158.295 21.6845 158.759 21.5671 159.276 21.5671C159.789 21.5671 160.251 21.6845 160.662 21.9194C161.075 22.1523 161.401 22.4914 161.639 22.9364C161.88 23.3815 162 23.9213 162 24.5558ZM160.753 24.5558C160.753 24.1448 160.691 23.7982 160.568 23.516C160.447 23.2338 160.276 23.0198 160.054 22.8739C159.832 22.7281 159.573 22.6552 159.276 22.6552C158.978 22.6552 158.719 22.7281 158.497 22.8739C158.276 23.0198 158.103 23.2338 157.98 23.516C157.859 23.7982 157.798 24.1448 157.798 24.5558C157.798 24.9667 157.859 25.3133 157.98 25.5955C158.103 25.8777 158.276 26.0917 158.497 26.2376C158.719 26.3834 158.978 26.4563 159.276 26.4563C159.573 26.4563 159.832 26.3834 160.054 26.2376C160.276 26.0917 160.447 25.8777 160.568 25.5955C160.691 25.3133 160.753 24.9667 160.753 24.5558ZM162.911 27.4648V21.6467H165.207C165.646 21.6467 166.021 21.7253 166.332 21.8825C166.644 22.0378 166.882 22.2584 167.045 22.5444C167.21 22.8285 167.292 23.1628 167.292 23.5472C167.292 23.9336 167.209 24.266 167.042 24.5444C166.875 24.8209 166.634 25.033 166.318 25.1808C166.003 25.3285 165.622 25.4023 165.176 25.4023H163.639V24.4137H164.977C165.212 24.4137 165.407 24.3815 165.562 24.3171C165.717 24.2527 165.833 24.1561 165.908 24.0273C165.986 23.8986 166.025 23.7385 166.025 23.5472C166.025 23.354 165.986 23.1912 165.908 23.0586C165.833 22.926 165.716 22.8256 165.559 22.7575C165.404 22.6874 165.208 22.6523 164.971 22.6523H164.141V27.4648H162.911ZM166.053 24.8171L167.499 27.4648H166.141L164.727 24.8171H166.053ZM159.81 33.32C159.787 33.0908 159.689 32.9128 159.517 32.7859C159.345 32.659 159.111 32.5955 158.815 32.5955C158.615 32.5955 158.445 32.6239 158.307 32.6808C158.169 32.7357 158.063 32.8124 157.989 32.9109C157.917 33.0094 157.881 33.1211 157.881 33.2461C157.877 33.3503 157.899 33.4412 157.946 33.5188C157.995 33.5965 158.063 33.6637 158.148 33.7205C158.233 33.7754 158.332 33.8237 158.443 33.8654C158.555 33.9052 158.674 33.9393 158.801 33.9677L159.324 34.0927C159.578 34.1495 159.811 34.2253 160.023 34.32C160.235 34.4147 160.419 34.5311 160.574 34.6694C160.729 34.8076 160.85 34.9705 160.935 35.158C161.022 35.3455 161.066 35.5605 161.068 35.8029C161.066 36.159 160.975 36.4677 160.796 36.729C160.618 36.9885 160.36 37.1902 160.023 37.3342C159.688 37.4762 159.283 37.5472 158.81 37.5472C158.34 37.5472 157.931 37.4753 157.582 37.3313C157.236 37.1874 156.965 36.9743 156.77 36.6921C156.577 36.408 156.475 36.0567 156.466 35.6381H157.656C157.67 35.8332 157.725 35.9961 157.824 36.1268C157.924 36.2556 158.058 36.3531 158.225 36.4194C158.393 36.4838 158.583 36.516 158.796 36.516C159.004 36.516 159.185 36.4857 159.338 36.4251C159.493 36.3645 159.614 36.2802 159.699 36.1722C159.784 36.0643 159.827 35.9402 159.827 35.8001C159.827 35.6694 159.788 35.5595 159.71 35.4705C159.635 35.3815 159.523 35.3058 159.375 35.2433C159.229 35.1808 159.05 35.1239 158.838 35.0728L158.205 34.9137C157.714 34.7944 157.327 34.6078 157.043 34.354C156.759 34.1003 156.618 33.7584 156.619 33.3285C156.618 32.9762 156.711 32.6684 156.901 32.4052C157.092 32.1419 157.354 31.9364 157.688 31.7887C158.021 31.641 158.4 31.5671 158.824 31.5671C159.256 31.5671 159.633 31.641 159.955 31.7887C160.279 31.9364 160.53 32.1419 160.71 32.4052C160.89 32.6684 160.983 32.9734 160.989 33.32H159.81ZM163.845 37.5501C163.398 37.5501 163.013 37.4554 162.691 37.266C162.371 37.0747 162.125 36.8095 161.953 36.4705C161.782 36.1315 161.697 35.7414 161.697 35.3001C161.697 34.8531 161.783 34.4611 161.955 34.1239C162.13 33.7849 162.377 33.5207 162.697 33.3313C163.017 33.14 163.398 33.0444 163.839 33.0444C164.22 33.0444 164.553 33.1135 164.839 33.2518C165.125 33.39 165.351 33.5842 165.518 33.8342C165.685 34.0842 165.776 34.3777 165.793 34.7148H164.651C164.619 34.497 164.534 34.3219 164.396 34.1893C164.259 34.0548 164.08 33.9876 163.859 33.9876C163.671 33.9876 163.507 34.0387 163.367 34.141C163.229 34.2414 163.121 34.3881 163.043 34.5813C162.966 34.7745 162.927 35.0084 162.927 35.283C162.927 35.5614 162.965 35.7982 163.041 35.9933C163.118 36.1883 163.227 36.337 163.367 36.4393C163.507 36.5415 163.671 36.5927 163.859 36.5927C163.997 36.5927 164.121 36.5643 164.231 36.5075C164.343 36.4506 164.435 36.3683 164.506 36.2603C164.58 36.1504 164.629 36.0188 164.651 35.8654H165.793C165.774 36.1987 165.684 36.4923 165.521 36.7461C165.36 36.998 165.137 37.195 164.853 37.337C164.569 37.479 164.233 37.5501 163.845 37.5501ZM167.813 37.5472C167.534 37.5472 167.286 37.4989 167.068 37.4023C166.85 37.3039 166.678 37.159 166.551 36.9677C166.426 36.7745 166.364 36.534 166.364 36.2461C166.364 36.0037 166.408 35.8001 166.497 35.6353C166.586 35.4705 166.707 35.3379 166.861 35.2376C167.014 35.1372 167.189 35.0614 167.384 35.0103C167.581 34.9592 167.787 34.9232 168.003 34.9023C168.257 34.8758 168.461 34.8512 168.617 34.8285C168.772 34.8039 168.885 34.7679 168.955 34.7205C169.025 34.6732 169.06 34.6031 169.06 34.5103V34.4933C169.06 34.3133 169.003 34.1741 168.889 34.0756C168.778 33.9772 168.618 33.9279 168.412 33.9279C168.194 33.9279 168.021 33.9762 167.892 34.0728C167.763 34.1675 167.678 34.2868 167.636 34.4308L166.517 34.3398C166.574 34.0747 166.686 33.8455 166.852 33.6523C167.019 33.4573 167.234 33.3076 167.497 33.2035C167.762 33.0974 168.069 33.0444 168.418 33.0444C168.66 33.0444 168.892 33.0728 169.114 33.1296C169.337 33.1864 169.535 33.2745 169.707 33.3938C169.882 33.5131 170.019 33.6665 170.119 33.854C170.22 34.0397 170.27 34.2622 170.27 34.5217V37.4648H169.122V36.8597H169.088C169.018 36.9961 168.924 37.1164 168.807 37.2205C168.689 37.3228 168.548 37.4033 168.384 37.462C168.219 37.5188 168.029 37.5472 167.813 37.5472ZM168.159 36.712C168.337 36.712 168.494 36.677 168.631 36.6069C168.767 36.5349 168.874 36.4383 168.952 36.3171C169.029 36.1959 169.068 36.0586 169.068 35.9052V35.4421C169.03 35.4667 168.978 35.4895 168.912 35.5103C168.848 35.5292 168.775 35.5472 168.693 35.5643C168.612 35.5794 168.53 35.5936 168.449 35.6069C168.368 35.6183 168.294 35.6287 168.227 35.6381C168.085 35.659 167.961 35.6921 167.855 35.7376C167.749 35.783 167.667 35.8446 167.608 35.9222C167.549 35.998 167.52 36.0927 167.52 36.2063C167.52 36.3711 167.58 36.497 167.699 36.5842C167.82 36.6694 167.974 36.712 168.159 36.712ZM172.419 34.9421V37.4648H171.209V33.1012H172.362V33.8711H172.413C172.51 33.6173 172.672 33.4165 172.899 33.2688C173.127 33.1192 173.402 33.0444 173.726 33.0444C174.029 33.0444 174.293 33.1107 174.519 33.2433C174.744 33.3758 174.919 33.5652 175.044 33.8114C175.169 34.0558 175.232 34.3474 175.232 34.6864V37.4648H174.021V34.9023C174.023 34.6353 173.955 34.427 173.817 34.2773C173.679 34.1258 173.488 34.0501 173.246 34.0501C173.083 34.0501 172.939 34.0851 172.814 34.1552C172.691 34.2253 172.594 34.3275 172.524 34.462C172.456 34.5946 172.421 34.7546 172.419 34.9421Z" fill="white"/>
</g>
<mask id="mask5_935_2927" style="mask-type:luminance" maskUnits="userSpaceOnUse" x="116" y="5" width="103" height="222">
<path d="M218.121 13.302V218.426C218.121 222.949 214.435 226.62 209.895 226.62H125.151C120.611 226.62 116.925 222.949 116.925 218.426V13.302C116.925 8.77304 120.611 5.10791 125.151 5.10791H145.747V5.53983C145.747 9.68007 149.117 13.0367 153.285 13.0367H181.773C185.936 13.0367 189.299 9.68007 189.299 5.53983V5.10791H209.901C214.442 5.10791 218.121 8.76687 218.121 13.302Z" fill="white"/>
</mask>
<g mask="url(#mask5_935_2927)">
<path d="M131.989 24.4885H128.267" stroke="white" stroke-width="0.684338" stroke-miterlimit="10"/>
<path d="M130.212 26.4259L128.267 24.4885L130.212 22.551" stroke="white" stroke-width="0.684338" stroke-miterlimit="10"/>
</g>
<mask id="mask6_935_2927" style="mask-type:luminance" maskUnits="userSpaceOnUse" x="116" y="5" width="103" height="222">
<path d="M218.121 13.302V218.426C218.121 222.949 214.435 226.62 209.895 226.62H125.151C120.611 226.62 116.925 222.949 116.925 218.426V13.302C116.925 8.77304 120.611 5.10791 125.151 5.10791H145.747V5.53983C145.747 9.68007 149.117 13.0367 153.285 13.0367H181.773C185.936 13.0367 189.299 9.68007 189.299 5.53983V5.10791H209.901C214.442 5.10791 218.121 8.76687 218.121 13.302Z" fill="white"/>
</mask>
<g mask="url(#mask6_935_2927)">
<g style="mix-blend-mode:screen">
<path d="M219.992 39.4392H114.107V109.891H219.992V39.4392Z" fill="url(#paint1_linear_935_2927)"/>
<path d="M225.387 107.898H109.244V110.786H225.387V107.898Z" fill="#0062FF"/>
</g>
</g>
<mask id="mask7_935_2927" style="mask-type:luminance" maskUnits="userSpaceOnUse" x="116" y="5" width="103" height="222">
<path d="M218.121 13.302V218.426C218.121 222.949 214.435 226.62 209.895 226.62H125.151C120.611 226.62 116.925 222.949 116.925 218.426V13.302C116.925 8.77304 120.611 5.10791 125.151 5.10791H145.747V5.53983C145.747 9.68007 149.117 13.0367 153.285 13.0367H181.773C185.936 13.0367 189.299 9.68007 189.299 5.53983V5.10791H209.901C214.442 5.10791 218.121 8.76687 218.121 13.302Z" fill="white"/>
</mask>
<g mask="url(#mask7_935_2927)">
<g style="mix-blend-mode:screen">
<path d="M139.503 85.3646C142.165 85.3646 144.322 83.2154 144.322 80.5641C144.322 77.9129 142.165 75.7637 139.503 75.7637C136.842 75.7637 134.684 77.9129 134.684 80.5641C134.684 83.2154 136.842 85.3646 139.503 85.3646Z" fill="url(#paint2_radial_935_2927)"/>
<path d="M141.746 80.5639C141.746 81.798 140.742 82.7976 139.503 82.7976C138.264 82.7976 137.261 81.798 137.261 80.5639C137.261 79.3299 138.264 78.3365 139.503 78.3365C140.742 78.3303 141.746 79.3299 141.746 80.5639Z" fill="url(#paint3_radial_935_2927)"/>
<path d="M195.023 108.972C197.684 108.972 199.842 106.822 199.842 104.171C199.842 101.52 197.684 99.3706 195.023 99.3706C192.361 99.3706 190.203 101.52 190.203 104.171C190.203 106.822 192.361 108.972 195.023 108.972Z" fill="url(#paint4_radial_935_2927)"/>
<path d="M195.022 106.405C196.261 106.405 197.265 105.405 197.265 104.171C197.265 102.938 196.261 101.938 195.022 101.938C193.784 101.938 192.78 102.938 192.78 104.171C192.78 105.405 193.784 106.405 195.022 106.405Z" fill="url(#paint5_radial_935_2927)"/>
<path d="M171.596 90.6337C171.596 92.312 170.233 93.6694 168.548 93.6694C166.863 93.6694 165.501 92.312 165.501 90.6337C165.501 88.9554 166.863 87.5979 168.548 87.5979C170.233 87.6041 171.596 88.9615 171.596 90.6337Z" fill="url(#paint6_radial_935_2927)"/>
<path d="M169.967 90.6337C169.967 91.4111 169.335 92.0467 168.548 92.0467C167.768 92.0467 167.13 91.4173 167.13 90.6337C167.13 89.8562 167.762 89.2207 168.548 89.2207C169.329 89.2269 169.967 89.8562 169.967 90.6337Z" fill="url(#paint7_radial_935_2927)"/>
<path d="M137.614 109.132C141.487 109.132 144.626 106.005 144.626 102.148C144.626 98.29 141.487 95.1628 137.614 95.1628C133.741 95.1628 130.602 98.29 130.602 102.148C130.602 106.005 133.741 109.132 137.614 109.132Z" fill="url(#paint8_radial_935_2927)"/>
<path d="M140.872 102.148C140.872 103.937 139.416 105.393 137.614 105.393C135.818 105.393 134.356 103.943 134.356 102.148C134.356 100.358 135.811 98.9021 137.614 98.9021C139.416 98.9021 140.872 100.352 140.872 102.148Z" fill="url(#paint9_radial_935_2927)"/>
<path d="M197.172 91.2568C203.152 91.2568 207.999 86.4279 207.999 80.4712C207.999 74.5144 203.152 69.6855 197.172 69.6855C191.192 69.6855 186.344 74.5144 186.344 80.4712C186.344 86.4279 191.192 91.2568 197.172 91.2568Z" fill="url(#paint10_radial_935_2927)"/>
<path d="M197.172 85.4814C199.95 85.4814 202.201 83.2383 202.201 80.4712C202.201 77.7041 199.95 75.4609 197.172 75.4609C194.394 75.4609 192.142 77.7041 192.142 80.4712C192.142 83.2383 194.394 85.4814 197.172 85.4814Z" fill="url(#paint11_radial_935_2927)"/>
</g>
</g>
<mask id="mask8_935_2927" style="mask-type:luminance" maskUnits="userSpaceOnUse" x="116" y="5" width="103" height="222">
<path d="M218.121 13.302V218.426C218.121 222.949 214.435 226.62 209.895 226.62H125.151C120.611 226.62 116.925 222.949 116.925 218.426V13.302C116.925 8.77304 120.611 5.10791 125.151 5.10791H145.747V5.53983C145.747 9.68007 149.117 13.0367 153.285 13.0367H181.773C185.936 13.0367 189.299 9.68007 189.299 5.53983V5.10791H209.901C214.442 5.10791 218.121 8.76687 218.121 13.302Z" fill="white"/>
</mask>
<g mask="url(#mask8_935_2927)">
<path d="M164.695 169.884C165.356 169.884 165.891 169.351 165.891 168.694C165.891 168.036 165.356 167.503 164.695 167.503C164.035 167.503 163.5 168.036 163.5 168.694C163.5 169.351 164.035 169.884 164.695 169.884Z" fill="white"/>
<path opacity="0.9033" d="M171.113 168.033C171.546 168.465 171.546 169.175 171.113 169.607C170.679 170.039 169.967 170.039 169.533 169.607C169.099 169.175 169.099 168.465 169.533 168.033C169.973 167.601 170.679 167.601 171.113 168.033Z" fill="white"/>
<path opacity="0.8067" d="M175.641 171.705C176.049 172.112 176.049 172.766 175.641 173.167C175.232 173.574 174.575 173.574 174.173 173.167C173.764 172.76 173.764 172.106 174.173 171.705C174.575 171.297 175.232 171.297 175.641 171.705Z" fill="white"/>
<path opacity="0.71" d="M176.316 178.831C176.846 178.831 177.276 178.403 177.276 177.875C177.276 177.347 176.846 176.919 176.316 176.919C175.786 176.919 175.356 177.347 175.356 177.875C175.356 178.403 175.786 178.831 176.316 178.831Z" fill="white"/>
<path opacity="0.6133" d="M174.179 184.008C174.668 184.008 175.065 183.613 175.065 183.126C175.065 182.638 174.668 182.243 174.179 182.243C173.69 182.243 173.293 182.638 173.293 183.126C173.293 183.613 173.69 184.008 174.179 184.008Z" fill="white"/>
<path opacity="0.5167" d="M169.793 185.514C170.109 185.829 170.109 186.335 169.793 186.649C169.477 186.964 168.969 186.964 168.654 186.649C168.338 186.335 168.338 185.829 168.654 185.514C168.963 185.199 169.477 185.199 169.793 185.514Z" fill="white"/>
<path opacity="0.42" d="M164.163 184.996C164.448 185.279 164.448 185.742 164.163 186.026C163.878 186.31 163.413 186.31 163.128 186.026C162.843 185.742 162.843 185.279 163.128 184.996C163.413 184.712 163.878 184.712 164.163 184.996Z" fill="white"/>
<path opacity="0.3233" d="M159.827 181.102C160.081 181.355 160.081 181.768 159.827 182.021C159.573 182.274 159.158 182.274 158.904 182.021C158.65 181.768 158.65 181.355 158.904 181.102C159.158 180.849 159.573 180.849 159.827 181.102Z" fill="white"/>
<path opacity="0.2267" d="M158.371 176.629C158.689 176.629 158.947 176.372 158.947 176.055C158.947 175.738 158.689 175.481 158.371 175.481C158.053 175.481 157.795 175.738 157.795 176.055C157.795 176.372 158.053 176.629 158.371 176.629Z" fill="white"/>
<path opacity="0.13" d="M160.929 171.434C161.203 171.434 161.425 171.213 161.425 170.94C161.425 170.667 161.203 170.446 160.929 170.446C160.656 170.446 160.434 170.667 160.434 170.94C160.434 171.213 160.656 171.434 160.929 171.434Z" fill="white"/>
</g>
<mask id="mask9_935_2927" style="mask-type:luminance" maskUnits="userSpaceOnUse" x="116" y="4" width="102" height="223">
<path d="M217.985 13.1599V218.284C217.985 222.807 214.299 226.478 209.759 226.478H125.015C120.474 226.478 116.789 222.807 116.789 218.284V13.1599C116.789 8.63095 120.474 4.96582 125.015 4.96582H145.611V5.39774C145.611 9.53798 148.98 12.8946 153.149 12.8946H181.637C185.799 12.8946 189.163 9.53798 189.163 5.39774V4.96582H209.765C214.305 4.96582 217.985 8.62478 217.985 13.1599Z" fill="white"/>
</mask>
<g mask="url(#mask9_935_2927)">
<path d="M159.48 199.67V195.655H159.966V199.239H161.833V199.67H159.48ZM163.746 199.733C163.474 199.733 163.236 199.668 163.03 199.539C162.826 199.41 162.667 199.229 162.552 198.996C162.438 198.763 162.381 198.492 162.381 198.18C162.381 197.867 162.438 197.593 162.552 197.359C162.667 197.125 162.826 196.943 163.03 196.814C163.236 196.685 163.474 196.62 163.746 196.62C164.018 196.62 164.256 196.685 164.46 196.814C164.665 196.943 164.824 197.125 164.938 197.359C165.053 197.593 165.11 197.867 165.11 198.18C165.11 198.492 165.053 198.763 164.938 198.996C164.824 199.229 164.665 199.41 164.46 199.539C164.256 199.668 164.018 199.733 163.746 199.733ZM163.746 199.318C163.952 199.318 164.122 199.265 164.256 199.159C164.389 199.053 164.488 198.914 164.552 198.741C164.616 198.569 164.648 198.382 164.648 198.18C164.648 197.979 164.616 197.792 164.552 197.618C164.488 197.444 164.389 197.303 164.256 197.196C164.122 197.089 163.952 197.036 163.746 197.036C163.539 197.036 163.37 197.089 163.236 197.196C163.103 197.303 163.004 197.444 162.94 197.618C162.876 197.792 162.844 197.979 162.844 198.18C162.844 198.382 162.876 198.569 162.94 198.741C163.004 198.914 163.103 199.053 163.236 199.159C163.37 199.265 163.539 199.318 163.746 199.318ZM166.703 199.741C166.512 199.741 166.339 199.705 166.183 199.633C166.028 199.56 165.904 199.455 165.813 199.318C165.721 199.179 165.676 199.012 165.676 198.816C165.676 198.643 165.71 198.503 165.778 198.396C165.845 198.288 165.936 198.203 166.05 198.141C166.164 198.08 166.289 198.034 166.426 198.004C166.565 197.973 166.704 197.948 166.844 197.93C167.027 197.906 167.175 197.888 167.289 197.877C167.404 197.864 167.488 197.842 167.54 197.812C167.594 197.782 167.62 197.73 167.62 197.655V197.639C167.62 197.446 167.567 197.296 167.462 197.188C167.357 197.081 167.198 197.028 166.985 197.028C166.764 197.028 166.591 197.076 166.466 197.173C166.34 197.269 166.252 197.373 166.201 197.483L165.762 197.326C165.84 197.143 165.945 197 166.075 196.898C166.207 196.795 166.351 196.723 166.507 196.683C166.664 196.641 166.818 196.62 166.969 196.62C167.066 196.62 167.177 196.632 167.303 196.655C167.43 196.677 167.552 196.724 167.669 196.794C167.788 196.865 167.887 196.971 167.965 197.114C168.044 197.256 168.083 197.447 168.083 197.686V199.67H167.62V199.263H167.597C167.565 199.328 167.513 199.398 167.44 199.472C167.367 199.547 167.269 199.61 167.148 199.663C167.026 199.715 166.878 199.741 166.703 199.741ZM166.773 199.325C166.956 199.325 167.111 199.289 167.236 199.218C167.363 199.146 167.458 199.053 167.522 198.939C167.588 198.825 167.62 198.706 167.62 198.58V198.157C167.601 198.18 167.558 198.202 167.491 198.222C167.426 198.24 167.35 198.256 167.264 198.271C167.179 198.284 167.096 198.295 167.015 198.306C166.935 198.315 166.87 198.323 166.82 198.329C166.7 198.345 166.588 198.371 166.483 198.406C166.38 198.44 166.296 198.492 166.232 198.561C166.17 198.629 166.138 198.722 166.138 198.839C166.138 199 166.198 199.121 166.317 199.204C166.437 199.285 166.589 199.325 166.773 199.325ZM170.065 199.733C169.814 199.733 169.592 199.67 169.4 199.543C169.208 199.415 169.058 199.235 168.949 199.002C168.841 198.768 168.786 198.492 168.786 198.173C168.786 197.856 168.841 197.582 168.949 197.349C169.058 197.117 169.208 196.937 169.402 196.81C169.595 196.683 169.819 196.62 170.072 196.62C170.268 196.62 170.423 196.653 170.537 196.718C170.652 196.782 170.74 196.855 170.8 196.938C170.861 197.019 170.909 197.085 170.943 197.137H170.982V195.655H171.445V199.67H170.998V199.208H170.943C170.909 199.263 170.861 199.332 170.798 199.416C170.735 199.498 170.646 199.572 170.529 199.637C170.413 199.701 170.258 199.733 170.065 199.733ZM170.127 199.318C170.313 199.318 170.47 199.269 170.598 199.172C170.726 199.074 170.823 198.939 170.89 198.767C170.957 198.593 170.99 198.392 170.99 198.165C170.99 197.94 170.957 197.743 170.892 197.575C170.827 197.405 170.73 197.273 170.602 197.179C170.474 197.083 170.316 197.036 170.127 197.036C169.931 197.036 169.768 197.086 169.637 197.186C169.508 197.286 169.41 197.421 169.345 197.592C169.281 197.762 169.249 197.953 169.249 198.165C169.249 198.379 169.282 198.574 169.347 198.749C169.414 198.923 169.512 199.061 169.641 199.165C169.772 199.267 169.934 199.318 170.127 199.318ZM159.417 206.67V203.659H159.88V206.67H159.417ZM159.652 203.157C159.562 203.157 159.485 203.127 159.419 203.065C159.355 203.004 159.323 202.93 159.323 202.844C159.323 202.757 159.355 202.683 159.419 202.622C159.485 202.561 159.562 202.53 159.652 202.53C159.743 202.53 159.82 202.561 159.884 202.622C159.949 202.683 159.982 202.757 159.982 202.844C159.982 202.93 159.949 203.004 159.884 203.065C159.82 203.127 159.743 203.157 159.652 203.157ZM161.19 204.859V206.67H160.727V203.659H161.174V204.13H161.214C161.284 203.977 161.391 203.854 161.535 203.761C161.679 203.667 161.864 203.62 162.092 203.62C162.296 203.62 162.474 203.662 162.627 203.745C162.78 203.828 162.899 203.953 162.984 204.122C163.069 204.289 163.111 204.501 163.111 204.757V206.67H162.649V204.788C162.649 204.552 162.587 204.368 162.464 204.236C162.341 204.102 162.173 204.036 161.958 204.036C161.811 204.036 161.679 204.068 161.562 204.132C161.447 204.196 161.357 204.289 161.29 204.412C161.223 204.535 161.19 204.684 161.19 204.859ZM165.172 207.862C164.949 207.862 164.757 207.834 164.596 207.776C164.435 207.72 164.301 207.645 164.194 207.553C164.088 207.461 164.004 207.363 163.941 207.259L164.31 207C164.351 207.055 164.404 207.117 164.468 207.188C164.532 207.26 164.62 207.322 164.731 207.374C164.843 207.428 164.991 207.455 165.172 207.455C165.415 207.455 165.616 207.396 165.774 207.278C165.932 207.161 166.011 206.976 166.011 206.725V206.114H165.972C165.938 206.169 165.89 206.236 165.827 206.318C165.766 206.397 165.677 206.468 165.56 206.531C165.445 206.593 165.29 206.623 165.094 206.623C164.851 206.623 164.632 206.566 164.439 206.451C164.247 206.336 164.095 206.169 163.982 205.949C163.871 205.729 163.816 205.463 163.816 205.149C163.816 204.841 163.87 204.572 163.978 204.343C164.087 204.113 164.238 203.936 164.431 203.81C164.625 203.683 164.848 203.62 165.102 203.62C165.298 203.62 165.453 203.653 165.568 203.718C165.685 203.782 165.773 203.855 165.835 203.938C165.898 204.019 165.946 204.085 165.98 204.137H166.027V203.659H166.474V206.757C166.474 207.015 166.415 207.226 166.298 207.388C166.181 207.551 166.024 207.671 165.827 207.747C165.631 207.824 165.413 207.862 165.172 207.862ZM165.157 206.208C165.342 206.208 165.499 206.165 165.627 206.08C165.755 205.995 165.852 205.873 165.919 205.714C165.986 205.554 166.019 205.363 166.019 205.141C166.019 204.924 165.986 204.733 165.921 204.567C165.856 204.401 165.759 204.271 165.631 204.177C165.503 204.083 165.345 204.036 165.157 204.036C164.96 204.036 164.797 204.085 164.666 204.185C164.537 204.284 164.44 204.417 164.374 204.584C164.31 204.752 164.278 204.937 164.278 205.141C164.278 205.35 164.311 205.535 164.376 205.696C164.443 205.856 164.541 205.981 164.67 206.072C164.801 206.163 164.963 206.208 165.157 206.208Z" fill="white"/>
</g>
<path d="M144.858 190.132C141.274 195.19 139.439 201.389 139.71 207.562C148.048 217.409 156.107 228.171 160.713 240.203C165.319 252.227 165.398 266.767 157.645 277.066C150.146 287.027 136.047 291.154 124.021 287.749C112.999 284.624 104.171 276.039 98.3588 266.201C96.1388 262.457 94.1896 258.539 92.459 254.534C89.6446 248.039 87.3896 241.274 85.4405 234.483C85.1171 223.904 85.4842 209.765 86.9001 200.501C101.339 192.056 113.917 180.468 123.488 166.772C125.576 163.786 127.613 160.617 130.646 158.588C134.658 155.924 139.614 155.715 144.499 155.193C147.349 154.888 150.172 154.47 152.768 153.39C155.268 152.346 157.479 150.726 159.953 149.629C161.823 148.802 163.973 148.306 165.957 148.654C166.281 148.706 166.595 148.785 166.901 148.898C167.207 148.994 167.496 149.115 167.784 149.263C171.193 151.031 172.084 155.497 171.883 159.328C171.516 166.676 168.606 173.868 163.746 179.405C158.886 184.943 152.121 188.782 144.858 190.132Z" fill="#C7E4FF"/>
<path d="M86.9002 200.501C86.9002 200.501 93.3681 177.647 94.6879 165.91C96.0165 154.174 95.1337 131.737 99.6962 126.896C104.259 122.056 111.767 118.973 111.767 118.973V180.973L101.75 195.983L86.9002 200.501Z" fill="#C7E4FF"/>
<path d="M85.4404 234.474C83.6924 250.782 66.9982 322.941 63.8604 331.744H156.526C156.526 331.744 153.388 302.995 154.953 298.885C175.178 293.217 199.713 262.57 199.713 232.002H156.963L85.4404 234.474Z" fill="#C7E4FF"/>
<path d="M240.076 168.697C239.84 170.29 239.211 171.796 238.546 173.267C235.461 180.059 231.668 186.702 226.878 192.448C225.768 193.78 224.597 195.077 223.373 196.305V166.093C224.719 165.127 226.38 163.925 228.093 162.976C229.308 162.306 230.54 161.757 231.685 161.496C234.456 160.887 237.725 161.636 239.254 164.021C240.12 165.388 240.312 167.103 240.076 168.697Z" fill="#C7E4FF"/>
<path d="M239.202 142.917C239.044 145.206 238.144 147.392 237.113 149.446C234.482 154.653 230.61 159.659 226.205 163.699C225.287 164.544 224.334 165.345 223.373 166.102V137.841C224.588 137.196 225.838 136.543 227.114 136.021C228.084 135.62 229.08 135.298 230.112 135.107C232.489 134.663 235.146 135.028 236.956 136.648C238.669 138.171 239.359 140.627 239.202 142.917Z" fill="#C7E4FF"/>
<path d="M162.531 158.484C159.979 160.669 156.561 161.496 153.283 162.254C151.903 162.576 150.452 162.898 149.079 162.567C147.401 162.167 146.064 160.835 145.338 159.276C144.753 158.005 144.526 156.603 144.499 155.193C147.349 154.888 150.172 154.461 152.768 153.382C155.268 152.337 157.479 150.718 159.944 149.629C161.814 148.794 163.973 148.306 165.948 148.654C166.613 152.215 165.293 156.107 162.531 158.484Z" fill="white"/>
<path opacity="0.2" d="M139.71 207.554C139.439 201.381 141.274 195.182 144.858 190.123C152.121 188.774 158.886 184.934 163.746 179.397C168.046 174.495 170.817 168.305 171.647 161.862C171.42 162.715 171.166 163.568 170.869 164.404C168.536 170.882 164.288 176.019 158.554 179.823C155.084 182.131 151.23 183.985 147.148 184.917C144.954 185.413 141.912 186.284 139.64 185.422C139.133 185.448 138.635 185.465 138.136 185.457C139.43 187.79 138.145 190.506 137.542 193.11C136.012 199.657 132.883 205.838 128.487 210.949C133.88 210.505 138.32 214.71 141.65 218.959C148.319 227.439 153.004 237.469 155.224 248.013C156.483 253.951 156.92 260.315 154.621 265.931C151.203 274.28 142.035 279.409 132.988 279.679C123.942 279.957 115.175 276.03 108.034 270.493C102.143 265.922 97.1963 260.306 92.459 254.534C94.1896 258.539 96.1387 262.457 98.3588 266.201C104.171 276.039 112.999 284.624 124.021 287.749C136.047 291.154 150.146 287.027 157.645 277.067C165.398 266.767 165.319 252.227 160.713 240.203C156.107 228.171 148.048 217.401 139.71 207.554Z" fill="#0059E7"/>
<path d="M127.613 163.542C129.632 166.05 131.66 168.557 133.679 171.056" stroke="#9FC8FA" stroke-width="0.6458" stroke-miterlimit="10"/>
<path d="M131.17 161.017C133.251 163.612 135.331 166.206 137.42 168.801" stroke="#9FC8FA" stroke-width="0.6458" stroke-miterlimit="10"/>
<path d="M134.588 158.867C134.518 158.754 134.448 158.632 134.378 158.519C136.327 160.948 138.268 163.377 140.217 165.806" stroke="#9FC8FA" stroke-width="0.6458" stroke-miterlimit="10"/>
<path d="M109.922 324.3C111.609 315.854 113.287 307.409 114.974 298.964C115.376 296.944 115.752 294.698 114.686 292.93C113.856 291.537 112.308 290.745 110.84 290.04C109.433 289.369 107.833 288.699 106.374 289.247C104.958 289.778 104.197 291.276 103.568 292.651C98.7259 303.239 94.2071 313.974 90.0029 324.831" stroke="#9FC8FA" stroke-width="0.6458" stroke-miterlimit="10"/>
<path d="M142.594 324.996C141.091 320.103 139.596 315.201 138.093 310.308C137.612 308.75 137.114 307.157 136.117 305.868C134.964 304.388 133.233 303.448 131.424 302.943C130.288 302.621 129.011 302.481 127.971 303.03C126.573 303.761 126.048 305.45 125.646 306.974C124.126 312.746 122.605 318.527 121.093 324.3" stroke="#9FC8FA" stroke-width="0.6458" stroke-miterlimit="10"/>
<path d="M163.807 259.427C163.187 265.086 161.902 269.901 159.454 274.359C156.998 278.808 152.427 282.656 147.996 285.164C140.059 289.665 129.658 290.1 121.355 286.87C113.051 283.64 105.43 277.101 100.544 269.631" stroke="#9FC8FA" stroke-width="0.6458" stroke-miterlimit="10"/>
<path d="M99.2678 130.083C100.789 130.719 102.309 131.354 103.83 131.99" stroke="#9FC8FA" stroke-width="0.6458" stroke-miterlimit="10"/>
<path d="M99.8884 128.22C101.453 128.777 103.017 129.334 104.582 129.892" stroke="#9FC8FA" stroke-width="0.6458" stroke-miterlimit="10"/>
<path d="M233.625 142.594C232.489 143.221 231.501 144.118 230.776 145.198C230.348 145.842 229.998 146.565 229.946 147.331C229.893 148.097 230.164 148.924 230.785 149.386C231.851 150.187 233.608 149.499 234.01 148.228C234.412 146.956 233.573 145.494 232.332 145.006C231.091 144.51 229.605 144.884 228.582 145.746C227.56 146.599 226.956 147.879 226.677 149.177C226.397 150.483 226.423 151.823 226.467 153.156" stroke="#9FC8FA" stroke-width="0.6458" stroke-miterlimit="10"/>
<path d="M233.879 164.587C232.376 165.04 231.065 166.119 230.339 167.513C229.614 168.906 229.483 170.595 229.981 172.075C230.33 173.111 231.003 174.069 231.974 174.556C232.953 175.044 234.246 174.965 235.024 174.199C236.108 173.137 235.723 171.108 234.456 170.29C233.188 169.472 231.388 169.759 230.226 170.725C229.063 171.7 228.469 173.215 228.311 174.713C228.154 176.219 228.373 177.734 228.6 179.223" stroke="#9FC8FA" stroke-width="0.6458" stroke-miterlimit="10"/>
<path d="M156.972 232.01C159.778 238.122 162.741 244.4 163.484 251.078C164.192 244.6 162.985 238.053 160.547 232.01H156.972Z" fill="#5CB1FF"/>
<path d="M186.2 232.01H156.972L161.613 236.163L186.2 232.01Z" fill="#5CB1FF"/>
<path d="M111.767 180.964L99.3291 192.099L111.837 172.283L111.767 180.964Z" fill="#5CB1FF"/>
<path d="M226.205 163.699C225.287 164.543 224.334 165.344 223.373 166.102V148.541L226.205 163.699Z" fill="#5CB1FF"/>
<path d="M226.887 192.457C225.777 193.789 224.605 195.086 223.382 196.314V179.641L226.887 192.457Z" fill="#5CB1FF"/>
</g>
<defs>
<linearGradient id="paint0_linear_935_2927" x1="166.251" y1="-3.54482" x2="166.251" y2="282.682" gradientUnits="userSpaceOnUse">
<stop stop-color="#0059E7"/>
<stop offset="1" stop-color="#96D1FF"/>
</linearGradient>
<linearGradient id="paint1_linear_935_2927" x1="167.05" y1="134.965" x2="167.05" y2="63.6723" gradientUnits="userSpaceOnUse">
<stop stop-color="#0A73FF"/>
<stop offset="1"/>
</linearGradient>
<radialGradient id="paint2_radial_935_2927" cx="0" cy="0" r="1" gradientUnits="userSpaceOnUse" gradientTransform="translate(139.505 80.5615) scale(4.81976 4.80108)">
<stop stop-color="#0A73FF"/>
<stop offset="0.1841" stop-color="#085CCC"/>
<stop offset="0.5892" stop-color="#042B5F"/>
<stop offset="0.8696" stop-color="#010C1B"/>
<stop offset="1"/>
</radialGradient>
<radialGradient id="paint3_radial_935_2927" cx="0" cy="0" r="1" gradientUnits="userSpaceOnUse" gradientTransform="translate(139.505 80.5613) scale(2.23923 2.23055)">
<stop stop-color="white"/>
<stop offset="0.1841" stop-color="#CCCCCC"/>
<stop offset="0.5892" stop-color="#5F5F5F"/>
<stop offset="0.8696" stop-color="#1B1B1B"/>
<stop offset="1"/>
</radialGradient>
<radialGradient id="paint4_radial_935_2927" cx="0" cy="0" r="1" gradientUnits="userSpaceOnUse" gradientTransform="translate(195.02 104.168) scale(4.81977 4.80108)">
<stop stop-color="#0A73FF"/>
<stop offset="0.1841" stop-color="#085CCC"/>
<stop offset="0.5892" stop-color="#042B5F"/>
<stop offset="0.8696" stop-color="#010C1B"/>
<stop offset="1"/>
</radialGradient>
<radialGradient id="paint5_radial_935_2927" cx="0" cy="0" r="1" gradientUnits="userSpaceOnUse" gradientTransform="translate(195.02 104.169) scale(2.23924 2.23055)">
<stop stop-color="white"/>
<stop offset="0.1841" stop-color="#CCCCCC"/>
<stop offset="0.5892" stop-color="#5F5F5F"/>
<stop offset="0.8696" stop-color="#1B1B1B"/>
<stop offset="1"/>
</radialGradient>
<radialGradient id="paint6_radial_935_2927" cx="0" cy="0" r="1" gradientUnits="userSpaceOnUse" gradientTransform="translate(168.549 90.6361) scale(3.04672 3.03491)">
<stop stop-color="#0A73FF"/>
<stop offset="0.1841" stop-color="#085CCC"/>
<stop offset="0.5892" stop-color="#042B5F"/>
<stop offset="0.8696" stop-color="#010C1B"/>
<stop offset="1"/>
</radialGradient>
<radialGradient id="paint7_radial_935_2927" cx="0" cy="0" r="1" gradientUnits="userSpaceOnUse" gradientTransform="translate(168.549 90.6361) scale(1.41551 1.41003)">
<stop stop-color="white"/>
<stop offset="0.1841" stop-color="#CCCCCC"/>
<stop offset="0.5892" stop-color="#5F5F5F"/>
<stop offset="0.8696" stop-color="#1B1B1B"/>
<stop offset="1"/>
</radialGradient>
<radialGradient id="paint8_radial_935_2927" cx="0" cy="0" r="1" gradientUnits="userSpaceOnUse" gradientTransform="translate(137.616 102.146) scale(7.00939 6.98221)">
<stop stop-color="#0A73FF"/>
<stop offset="0.1841" stop-color="#085CCC"/>
<stop offset="0.5892" stop-color="#042B5F"/>
<stop offset="0.8696" stop-color="#010C1B"/>
<stop offset="1"/>
</radialGradient>
<radialGradient id="paint9_radial_935_2927" cx="0" cy="0" r="1" gradientUnits="userSpaceOnUse" gradientTransform="translate(137.615 102.146) scale(3.25652 3.24389)">
<stop stop-color="white"/>
<stop offset="0.1841" stop-color="#CCCCCC"/>
<stop offset="0.5892" stop-color="#5F5F5F"/>
<stop offset="0.8696" stop-color="#1B1B1B"/>
<stop offset="1"/>
</radialGradient>
<radialGradient id="paint10_radial_935_2927" cx="0" cy="0" r="1" gradientUnits="userSpaceOnUse" gradientTransform="translate(197.174 80.473) scale(10.8248 10.7828)">
<stop stop-color="#0A73FF"/>
<stop offset="0.1841" stop-color="#085CCC"/>
<stop offset="0.5892" stop-color="#042B5F"/>
<stop offset="0.8696" stop-color="#010C1B"/>
<stop offset="1"/>
</radialGradient>
<radialGradient id="paint11_radial_935_2927" cx="0" cy="0" r="1" gradientUnits="userSpaceOnUse" gradientTransform="translate(197.174 80.473) scale(5.02914 5.00964)">
<stop stop-color="white"/>
<stop offset="0.1841" stop-color="#CCCCCC"/>
<stop offset="0.5892" stop-color="#5F5F5F"/>
<stop offset="0.8696" stop-color="#1B1B1B"/>
<stop offset="1"/>
</radialGradient>
</defs>
</svg>
