<svg width="23" height="22" viewBox="0 0 23 22" fill="none" xmlns="http://www.w3.org/2000/svg">
<g clip-path="url(#clip0_1007_17312)">
<path d="M0.5 7.28516V14.7146C0.5 17.0885 5.42485 19.0129 11.5 19.0129C17.5751 19.0129 22.5 17.0884 22.5 14.7146V7.28516H0.5Z" fill="url(#paint0_linear_1007_17312)"/>
<path d="M20.4876 17.002L20.6101 17.1244C20.8102 17.0091 20.9964 16.8899 21.1677 16.767L20.9452 16.5445L21.3864 16.1033L21.6537 16.3706C21.8212 16.214 21.9659 16.0528 22.0856 15.8874L21.844 15.6457L22.2852 15.2045L22.3935 15.3128C22.4632 15.1174 22.5 14.9178 22.5 14.7148V14.0745L22.2852 14.2894L21.844 13.8482L22.2852 13.407L22.5 13.6218V12.277L22.2852 12.4918L21.844 12.0506L22.2852 11.6094L22.5 11.8243V10.4795L22.2852 10.6943L21.844 10.2531L22.5 9.59708V8.68196L21.3864 9.79555L20.9452 9.35434L21.7883 8.51122L21.3308 8.05371L20.4877 8.89679L19.6446 8.05371L19.5889 8.10936L19.5332 8.05371L18.6902 8.89679L17.8471 8.05371L17.7914 8.10936L17.7357 8.05371L16.8926 8.89679L16.0496 8.05371L15.9939 8.10936L15.9382 8.05371L15.0951 8.89679L14.252 8.05371L14.1963 8.1094L14.1406 8.05371L13.2976 8.89679L12.4545 8.05371L12.3988 8.1094L12.3431 8.05371L11.5 8.89679L10.6569 8.05371L10.6013 8.10936L10.5456 8.05371L9.70251 8.89683L8.8594 8.05371L8.80375 8.10936L8.7481 8.05371L7.90498 8.89683L7.06187 8.05371L7.00622 8.10936L6.95057 8.05371L6.10745 8.89683L5.26434 8.05371L5.20869 8.10936L5.15304 8.05371L4.30988 8.89683L3.46676 8.05371L3.41112 8.10936L3.35547 8.05371L2.51235 8.89683L1.66924 8.05371L1.21172 8.51122L2.05484 9.35434L1.61363 9.79559L0.5 8.682V9.59708L1.15603 10.2531L0.714824 10.6944L0.5 10.4795V11.8243L0.714824 11.6094L1.15607 12.0507L0.714824 12.4919L0.5 12.2771V13.6218L0.714824 13.407L1.15607 13.8482L0.714824 14.2894L0.5 14.0745V14.7148C0.5 14.9178 0.536839 15.1173 0.606463 15.3128L0.714824 15.2044L1.15607 15.6457L0.91442 15.8874C1.03413 16.0527 1.17885 16.2139 1.34631 16.3705L1.61363 16.1032L2.05488 16.5445L1.83238 16.767C2.00364 16.8899 2.18986 17.0091 2.38997 17.1244L2.5124 17.002L2.90986 17.3995C3.50063 17.6878 4.18409 17.9457 4.94318 18.1663L5.20869 17.9008L5.64994 18.342L5.63933 18.3526C6.03372 18.4495 6.43094 18.5345 6.83044 18.6075L6.56501 18.342L7.00626 17.9008L7.44747 18.342L7.12929 18.6602C7.89683 18.7902 8.70936 18.8872 9.5558 18.9463L9.70251 18.7995L9.86907 18.9661C10.3331 18.9931 10.8065 19.0086 11.2875 19.0122L11.5 18.7996L11.7126 19.0122C12.1858 19.0088 12.6587 18.9934 13.1311 18.9661L13.2976 18.7996L13.4443 18.9463C14.2907 18.8873 15.1033 18.7902 15.8709 18.6602L15.5527 18.342L15.9939 17.9008L16.4351 18.342L16.1697 18.6075C16.5692 18.5345 16.9664 18.4495 17.3608 18.3526L17.3502 18.342L17.7914 17.9008L18.0569 18.1663C18.816 17.9457 19.4995 17.6877 20.0903 17.3995L20.4876 17.002ZM21.3864 10.7107L21.8276 11.1519L21.3864 11.5931L20.9452 11.1519L21.3864 10.7107ZM21.3864 12.5082L21.8276 12.9494L21.3864 13.3906L20.9452 12.9494L21.3864 12.5082ZM21.3864 14.3057L21.8276 14.7469L21.3864 15.1881L20.9452 14.7469L21.3864 14.3057ZM20.4876 9.8119L20.9289 10.2531L20.4876 10.6943L20.0464 10.2531L20.4876 9.8119ZM20.4876 11.6094L20.9289 12.0506L20.4876 12.4918L20.0464 12.0506L20.4876 11.6094ZM20.4876 13.407L20.9289 13.8482L20.4876 14.2894L20.0464 13.8482L20.4876 13.407ZM20.4876 15.2045L20.9289 15.6457L20.4876 16.0869L20.0464 15.6457L20.4876 15.2045ZM12.3988 8.91313L12.84 9.35434L12.3988 9.79559L11.9576 9.35439L12.3988 8.91313ZM11.5 9.8119L11.9412 10.2531L11.5 10.6943L11.0588 10.2531L11.5 9.8119ZM10.6012 8.91313L11.0424 9.35434L10.6012 9.79559L10.16 9.35439L10.6012 8.91313ZM10.6012 10.7107L11.0424 11.1519L10.6012 11.5931L10.16 11.1519L10.6012 10.7107ZM9.70247 9.8119L10.1437 10.2531L9.70247 10.6944L9.26126 10.2532L9.70247 9.8119ZM10.1437 12.0506L9.70247 12.4918L9.26126 12.0506L9.70247 11.6094L10.1437 12.0506ZM8.80371 12.5082L9.24491 12.9494L8.80366 13.3906L8.36246 12.9494L8.80371 12.5082ZM8.3625 11.1519L8.80371 10.7107L9.24491 11.1519L8.80371 11.5931L8.3625 11.1519ZM7.90494 13.407L8.34615 13.8482L7.90494 14.2894L7.46373 13.8482L7.90494 13.407ZM7.46369 12.0506L7.90494 11.6094L8.34615 12.0506L7.9049 12.4918L7.46369 12.0506ZM7.00618 8.91309L7.44743 9.35434L7.00622 9.79559L6.56497 9.35434L7.00618 8.91309ZM6.10741 12.4919L5.66616 12.0506L6.10737 11.6094L6.54862 12.0506L6.10741 12.4919ZM6.54862 13.8482L6.10741 14.2894L5.6662 13.8482L6.10741 13.407L6.54862 13.8482ZM6.10741 15.2044L6.54862 15.6457L6.10737 16.0869L5.66616 15.6457L6.10741 15.2044ZM4.30988 9.8119L4.75109 10.2532L4.30988 10.6944L3.86863 10.2531L4.30988 9.8119ZM4.30988 11.6094L4.75113 12.0507L4.30988 12.4918L3.86863 12.0506L4.30988 11.6094ZM3.41112 8.91313L3.85237 9.35439L3.41116 9.79564L2.96991 9.35439L3.41112 8.91313ZM3.85233 11.1519L3.41112 11.5931L2.96987 11.1519L3.41107 10.7106L3.85233 11.1519ZM2.51235 9.8119L2.9536 10.2532L2.51235 10.6944L2.0711 10.2531L2.51235 9.8119ZM1.61359 15.1881L1.17234 14.7469L1.61359 14.3056L2.05484 14.7469L1.61359 15.1881ZM1.61359 13.3907L1.17234 12.9494L1.61359 12.5082L2.05484 12.9494L1.61359 13.3907ZM1.61359 11.5931L1.17234 11.1519L1.61359 10.7106L2.05484 11.1519L1.61359 11.5931ZM2.51235 16.0869L2.0711 15.6457L2.51235 15.2044L2.9536 15.6457L2.51235 16.0869ZM2.0711 13.8482L2.51235 13.4069L2.9536 13.8482L2.51235 14.2894L2.0711 13.8482ZM2.51235 12.4919L2.0711 12.0506L2.51235 11.6094L2.9536 12.0506L2.51235 12.4919ZM3.41112 16.9857L2.96991 16.5444L3.41116 16.1032L3.85237 16.5444L3.41112 16.9857ZM3.41112 15.1881L2.96987 14.7469L3.41112 14.3056L3.85237 14.7469L3.41112 15.1881ZM3.41112 13.3907L2.96987 12.9494L3.41112 12.5082L3.85237 12.9494L3.41112 13.3907ZM4.30988 17.8844L3.86867 17.4432L4.30993 17.0019L4.75113 17.4432L4.30988 17.8844ZM4.30988 16.0869L3.86867 15.6457L4.30993 15.2044L4.75113 15.6457L4.30988 16.0869ZM4.30988 14.2894L3.86863 13.8482L4.30988 13.4069L4.75113 13.8482L4.30988 14.2894ZM5.20865 16.9857L4.76744 16.5444L5.20869 16.1032L5.6499 16.5444L5.20865 16.9857ZM5.20865 15.1881L4.76744 14.7469L5.20869 14.3057L5.6499 14.7469L5.20865 15.1881ZM4.7674 11.1519L5.2086 10.7106L5.64986 11.1519L5.20865 11.5931L4.7674 11.1519ZM5.20865 13.3907L4.7674 12.9494L5.2086 12.5082L5.64986 12.9494L5.20865 13.3907ZM5.20865 9.79559L4.7674 9.35434L5.20865 8.91309L5.6499 9.35434L5.20865 9.79559ZM6.10741 17.8845L5.66616 17.4432L6.10741 17.002L6.54866 17.4432L6.10741 17.8845ZM6.10741 10.6944L5.66616 10.2531L6.10741 9.81186L6.54866 10.2531L6.10741 10.6944ZM7.00618 16.9857L6.56493 16.5445L7.00618 16.1032L7.44743 16.5445L7.00618 16.9857ZM7.00618 14.3057L7.44738 14.7469L7.00618 15.1881L6.56497 14.7469L7.00618 14.3057ZM6.56493 12.9494L7.00613 12.5082L7.44734 12.9494L7.00613 13.3906L6.56493 12.9494ZM7.00618 11.5931L6.56493 11.1519L7.00618 10.7106L7.44743 11.1519L7.00618 11.5931ZM7.90494 15.2045L8.34619 15.6457L7.90498 16.0869L7.46373 15.6457L7.90494 15.2045ZM7.90494 17.8845L7.46373 17.4433L7.90498 17.002L8.34619 17.4432L7.90494 17.8845ZM7.90494 10.6943L7.46369 10.2531L7.9049 9.81186L8.34615 10.2531L7.90494 10.6943ZM8.80371 14.3057L9.24496 14.747L8.80375 15.1882L8.3625 14.7469L8.80371 14.3057ZM9.24491 16.5445L8.80371 16.9857L8.3625 16.5445L8.80371 16.1033L9.24491 16.5445ZM8.80371 18.7832L8.3625 18.342L8.80375 17.9007L9.24496 18.3419L8.80371 18.7832ZM8.80371 9.79559L8.36246 9.35434L8.80366 8.91309L9.24491 9.35434L8.80371 9.79559ZM9.70247 17.8844L9.26126 17.4432L9.70247 17.002L10.1437 17.4433L9.70247 17.8844ZM9.70247 16.0869L9.26126 15.6457L9.70247 15.2045L10.1437 15.6457L9.70247 16.0869ZM9.70247 14.2894L9.26122 13.8482L9.70247 13.4069L10.1437 13.8482L9.70247 14.2894ZM10.6012 18.7832L10.16 18.3419L10.6012 17.9007L11.0424 18.342L10.6012 18.7832ZM10.6012 16.9857L10.16 16.5445L10.6012 16.1033L11.0424 16.5445L10.6012 16.9857ZM10.6012 15.1881L10.16 14.7469L10.6013 14.3057L11.0425 14.7469L10.6012 15.1881ZM10.6012 13.3906L10.16 12.9494L10.6012 12.5082L11.0424 12.9494L10.6012 13.3906ZM11.5 17.8844L11.0588 17.4432L11.5 17.002L11.9412 17.4433L11.5 17.8844ZM11.5 16.0869L11.0588 15.6457L11.5 15.2045L11.9412 15.6457L11.5 16.0869ZM11.5 14.2894L11.0588 13.8482L11.5 13.407L11.9412 13.8482L11.5 14.2894ZM11.5 12.4918L11.0587 12.0506L11.5 11.6094L11.9413 12.0507L11.5 12.4918ZM12.3988 18.7832L11.9576 18.3419L12.3988 17.9007L12.84 18.342L12.3988 18.7832ZM12.3988 16.9857L11.9576 16.5445L12.3988 16.1032L12.84 16.5444L12.3988 16.9857ZM12.3988 15.1881L11.9576 14.7469L12.3988 14.3057L12.84 14.7469L12.3988 15.1881ZM12.3988 13.3906L11.9576 12.9494L12.3988 12.5082L12.84 12.9494L12.3988 13.3906ZM12.3988 11.5931L11.9575 11.1518L12.3987 10.7106L12.84 11.1519L12.3988 11.5931ZM13.2975 17.8844L12.8563 17.4432L13.2976 17.002L13.7388 17.4432L13.2975 17.8844ZM13.2975 16.0869L12.8563 15.6457L13.2975 15.2045L13.7387 15.6457L13.2975 16.0869ZM13.2975 14.2894L12.8563 13.8482L13.2975 13.407L13.7387 13.8482L13.2975 14.2894ZM13.2975 12.4918L12.8563 12.0506L13.2975 11.6094L13.7387 12.0506L13.2975 12.4918ZM13.2975 10.6943L12.8563 10.2531L13.2975 9.81186L13.7387 10.2531L13.2975 10.6943ZM14.1963 18.7832L13.7551 18.342L14.1963 17.9007L14.6375 18.3419L14.1963 18.7832ZM14.1963 16.9857L13.7551 16.5445L14.1963 16.1033L14.6375 16.5445L14.1963 16.9857ZM14.1963 15.1881L13.7551 14.7469L14.1963 14.3057L14.6375 14.7469L14.1963 15.1881ZM14.1963 13.3906L13.7551 12.9494L14.1963 12.5082L14.6375 12.9494L14.1963 13.3906ZM14.1963 11.5931L13.7551 11.1519L14.1963 10.7107L14.6375 11.1519L14.1963 11.5931ZM14.1963 9.79555L13.755 9.3543L14.1963 8.91309L14.6375 9.35434L14.1963 9.79555ZM15.0951 17.8844L14.6539 17.4432L15.0951 17.002L15.5363 17.4432L15.0951 17.8844ZM15.0951 16.0869L14.6539 15.6457L15.0951 15.2045L15.5363 15.6457L15.0951 16.0869ZM15.0951 14.2894L14.6539 13.8482L15.0951 13.407L15.5363 13.8482L15.0951 14.2894ZM15.0951 12.4918L14.6539 12.0506L15.0951 11.6094L15.5363 12.0506L15.0951 12.4918ZM15.0951 10.6943L14.6539 10.2531L15.0951 9.8119L15.5363 10.2531L15.0951 10.6943ZM15.9938 16.9857L15.5526 16.5445L15.9938 16.1033L16.435 16.5445L15.9938 16.9857ZM15.9938 15.1881L15.5526 14.7469L15.9938 14.3057L16.435 14.7469L15.9938 15.1881ZM15.9938 13.3906L15.5526 12.9494L15.9938 12.5082L16.435 12.9494L15.9938 13.3906ZM15.9938 11.5931L15.5526 11.1519L15.9938 10.7107L16.435 11.1519L15.9938 11.5931ZM15.9938 9.79555L15.5526 9.35434L15.9938 8.91313L16.435 9.35434L15.9938 9.79555ZM16.8926 17.8844L16.4514 17.4432L16.8926 17.002L17.3338 17.4432L16.8926 17.8844ZM16.8926 16.0869L16.4514 15.6457L16.8926 15.2045L17.3338 15.6457L16.8926 16.0869ZM16.8926 14.2894L16.4514 13.8482L16.8926 13.407L17.3338 13.8482L16.8926 14.2894ZM16.8926 12.4918L16.4514 12.0506L16.8926 11.6094L17.3338 12.0506L16.8926 12.4918ZM16.8926 10.6943L16.4514 10.2531L16.8926 9.8119L17.3338 10.2531L16.8926 10.6943ZM17.7914 16.9857L17.3501 16.5445L17.7914 16.1033L18.2326 16.5445L17.7914 16.9857ZM17.7914 15.1881L17.3501 14.7469L17.7914 14.3057L18.2326 14.7469L17.7914 15.1881ZM17.7914 13.3906L17.3501 12.9494L17.7914 12.5082L18.2326 12.9494L17.7914 13.3906ZM17.7914 11.5931L17.3501 11.1519L17.7914 10.7107L18.2326 11.1519L17.7914 11.5931ZM17.7914 9.79555L17.3501 9.35434L17.7914 8.91313L18.2326 9.35434L17.7914 9.79555ZM18.6901 17.8844L18.2489 17.4432L18.6901 17.002L19.1313 17.4432L18.6901 17.8844ZM18.6901 16.0869L18.2489 15.6457L18.6901 15.2045L19.1313 15.6457L18.6901 16.0869ZM18.6901 14.2894L18.2489 13.8482L18.6901 13.407L19.1313 13.8482L18.6901 14.2894ZM18.6901 12.4918L18.2489 12.0506L18.6901 11.6094L19.1313 12.0506L18.6901 12.4918ZM18.6901 10.6943L18.2489 10.2531L18.6901 9.8119L19.1313 10.2531L18.6901 10.6943ZM19.5889 16.9857L19.1477 16.5445L19.5889 16.1033L20.0301 16.5445L19.5889 16.9857ZM19.5889 15.1881L19.1477 14.7469L19.5889 14.3057L20.0301 14.7469L19.5889 15.1881ZM19.5889 13.3906L19.1477 12.9494L19.5889 12.5082L20.0301 12.9494L19.5889 13.3906ZM19.5889 11.5931L19.1477 11.1519L19.5889 10.7107L20.0301 11.1519L19.5889 11.5931ZM19.5889 9.79555L19.1477 9.35434L19.5889 8.91313L20.0301 9.35434L19.5889 9.79555Z" fill="url(#paint1_linear_1007_17312)"/>
<path d="M11.5 19.0129C17.5751 19.0129 22.5 17.0885 22.5 14.7146V7.28516H11.5V19.0129Z" fill="url(#paint2_linear_1007_17312)"/>
<path d="M0.5 11.6094V14.7148C0.5 17.0887 5.42485 19.0131 11.5 19.0131C17.5751 19.0131 22.5 17.0887 22.5 14.7148V11.6094H0.5Z" fill="url(#paint3_linear_1007_17312)"/>
<path d="M11.5 11.584C17.5751 11.584 22.5 9.65953 22.5 7.28563C22.5 4.91173 17.5751 2.9873 11.5 2.9873C5.42487 2.9873 0.5 4.91173 0.5 7.28563C0.5 9.65953 5.42487 11.584 11.5 11.584Z" fill="url(#paint4_linear_1007_17312)"/>
<path d="M22.5 7.28531C22.5 9.65924 17.5751 11.5836 11.5 11.5836C5.42485 11.5836 0.5 9.65924 0.5 7.28531C0.5 4.91138 22.5 4.91143 22.5 7.28531Z" fill="url(#paint5_linear_1007_17312)"/>
<path d="M11.5 8.75932C15.6956 8.75932 19.0969 7.76365 19.0969 6.53542C19.0969 5.3072 15.6956 4.31152 11.5 4.31152C7.30433 4.31152 3.90308 5.3072 3.90308 6.53542C3.90308 7.76365 7.30433 8.75932 11.5 8.75932Z" fill="url(#paint6_linear_1007_17312)"/>
<path d="M11.5 9.5892C9.38773 9.5892 7.39686 9.3246 5.89413 8.84409C4.23667 8.31415 3.3606 7.58453 3.3606 6.73408C3.3606 5.88362 4.23667 5.15396 5.89413 4.62402C7.39686 4.14355 9.38773 3.87891 11.5 3.87891C13.6122 3.87891 15.6031 4.14351 17.1059 4.62402C18.7633 5.15396 19.6394 5.88358 19.6394 6.73408C19.6394 7.58457 18.7633 8.31419 17.1059 8.84409C15.6031 9.3246 13.6122 9.5892 11.5 9.5892ZM11.5 4.42364C7.02972 4.42364 4.28485 5.65383 4.28485 6.53582C4.28485 7.4178 7.02972 8.64799 11.5 8.64799C15.9703 8.64799 18.7151 7.4178 18.7151 6.53582C18.7151 5.65383 15.9703 4.42364 11.5 4.42364Z" fill="url(#paint7_linear_1007_17312)"/>
</g>
<defs>
<linearGradient id="paint0_linear_1007_17312" x1="3.92648" y1="13.1491" x2="16.4842" y2="13.1491" gradientUnits="userSpaceOnUse">
<stop stop-color="#5A5A5A"/>
<stop offset="1" stop-color="#444444"/>
</linearGradient>
<linearGradient id="paint1_linear_1007_17312" x1="9.31756" y1="6.63946" x2="17.6574" y2="26.6264" gradientUnits="userSpaceOnUse">
<stop stop-color="#433F43" stop-opacity="0"/>
<stop offset="1" stop-color="#1A1A1A"/>
</linearGradient>
<linearGradient id="paint2_linear_1007_17312" x1="16.3314" y1="13.1491" x2="22.4143" y2="13.1491" gradientUnits="userSpaceOnUse">
<stop stop-color="#433F43" stop-opacity="0"/>
<stop offset="1" stop-color="#1A1A1A"/>
</linearGradient>
<linearGradient id="paint3_linear_1007_17312" x1="11.5" y1="14.2785" x2="11.5" y2="19.0667" gradientUnits="userSpaceOnUse">
<stop stop-color="#433F43" stop-opacity="0"/>
<stop offset="1" stop-color="#1A1A1A"/>
</linearGradient>
<linearGradient id="paint4_linear_1007_17312" x1="9.37553" y1="2.91173" x2="14.0126" y2="12.4586" gradientUnits="userSpaceOnUse">
<stop stop-color="#5A5A5A"/>
<stop offset="1" stop-color="#444444"/>
</linearGradient>
<linearGradient id="paint5_linear_1007_17312" x1="11.5" y1="8.15298" x2="11.5" y2="13.1145" gradientUnits="userSpaceOnUse">
<stop stop-color="#433F43" stop-opacity="0"/>
<stop offset="1" stop-color="#1A1A1A"/>
</linearGradient>
<linearGradient id="paint6_linear_1007_17312" x1="11.5" y1="8.17718" x2="11.5" y2="4.67133" gradientUnits="userSpaceOnUse">
<stop stop-color="#5A5A5A"/>
<stop offset="1" stop-color="#444444"/>
</linearGradient>
<linearGradient id="paint7_linear_1007_17312" x1="10.3478" y1="4.06569" x2="12.8066" y2="9.75981" gradientUnits="userSpaceOnUse">
<stop stop-color="#EAF6FF"/>
<stop offset="1" stop-color="#B3DAFE"/>
</linearGradient>
<clipPath id="clip0_1007_17312">
<rect width="22" height="22" fill="white" transform="translate(0.5)"/>
</clipPath>
</defs>
</svg>
