<svg width="33" height="32" viewBox="0 0 33 32" fill="none" xmlns="http://www.w3.org/2000/svg">
<path d="M19.9032 0H3.80213C2.61682 0 1.65283 0.963984 1.65283 2.1493V26.5836C1.65283 27.7689 2.61682 28.7329 3.80213 28.7329H19.9032C21.0885 28.7329 22.0525 27.7689 22.0525 26.5836V2.1493C22.0525 0.963984 21.0885 0 19.9032 0ZM15.7859 6.1999C15.7859 5.90524 16.0246 5.66657 16.3193 5.66657H18.1859C18.4805 5.66657 18.7192 5.90524 18.7192 6.1999C18.7192 6.49456 18.4805 6.73322 18.1859 6.73322H16.3193C16.0246 6.73322 15.7859 6.49456 15.7859 6.1999ZM18.1859 4.0666H15.1859C14.8913 4.0666 14.6526 3.82794 14.6526 3.53327C14.6526 3.23861 14.8913 2.99995 15.1859 2.99995H18.1859C18.4805 2.99995 18.7192 3.23861 18.7192 3.53327C18.7192 3.82794 18.4805 4.0666 18.1859 4.0666Z" fill="#0059E7"/>
<path d="M29.5851 3.63592L23.7496 2.55594C23.4217 2.49527 23.1192 2.74693 23.1192 3.08033V26.5835C23.1192 28.3596 21.6793 29.7995 19.9032 29.7995H18.462C17.8131 29.7995 17.7269 30.7392 18.365 30.8572C24.866 32.06 24.4568 31.9994 24.7365 31.9994C25.7538 31.9994 26.6618 31.2728 26.8531 30.2375L31.311 6.14588C31.5268 4.99143 30.7629 3.85345 29.5851 3.63592ZM24.3958 8.9965C24.4217 8.85739 24.5017 8.73425 24.6183 8.65412C24.735 8.574 24.8786 8.54344 25.0178 8.56917L26.8577 8.90983C27.1477 8.96316 27.339 9.24116 27.285 9.53115C27.2625 9.65357 27.1978 9.76424 27.1022 9.84399C27.0067 9.92374 26.8862 9.96754 26.7617 9.96781C26.6938 9.96781 26.8359 9.98908 24.8238 9.61782C24.7549 9.60514 24.6891 9.579 24.6303 9.54091C24.5715 9.50282 24.5208 9.45352 24.481 9.39582C24.4413 9.33812 24.4133 9.27316 24.3987 9.20464C24.384 9.13612 24.3831 9.0654 24.3958 8.9965ZM24.1925 6.78187C23.9032 6.72853 23.7118 6.44987 23.7652 6.16054C23.8185 5.87121 24.0958 5.67922 24.3865 5.73322L27.3444 6.28054C27.4133 6.29321 27.4791 6.31934 27.5378 6.35744C27.5966 6.39554 27.6473 6.44485 27.687 6.50257C27.7267 6.56028 27.7546 6.62525 27.7691 6.69377C27.7837 6.76229 27.7846 6.833 27.7718 6.90186C27.7591 6.97076 27.733 7.03648 27.6949 7.09526C27.6568 7.15404 27.6075 7.20473 27.5498 7.24442C27.492 7.28412 27.4271 7.31204 27.3586 7.32658C27.29 7.34113 27.2193 7.34201 27.1504 7.32919L24.1925 6.78187Z" fill="#0059E7"/>
</svg>
