<svg width="32" height="32" viewBox="0 0 32 32" fill="none" xmlns="http://www.w3.org/2000/svg">
<rect width="32" height="32" rx="16" fill="#0059E7"/>
<path d="M15.9999 22.5332L11.7816 24.8481C10.8726 25.347 9.81059 24.5418 9.98339 23.4849L10.7889 18.5808L7.3761 15.1066C6.6399 14.3588 7.0458 13.0548 8.06189 12.8988L12.7797 12.1848L14.8884 7.72223C15.3429 6.75926 16.656 6.75926 17.1114 7.72223L19.2201 12.1848L23.9379 12.8988C24.954 13.0538 25.3599 14.3569 24.6246 15.1066L21.2109 18.5808L22.0164 23.4849C22.1892 24.5418 21.1272 25.3479 20.2182 24.8481L15.9999 22.5332Z" fill="url(#paint0_linear_1492_2053)"/>
<path d="M15.9999 22.5332L11.7816 24.8481C10.8726 25.347 9.81059 24.5418 9.98339 23.4849L10.7889 18.5808L7.3761 15.1066C6.6399 14.3588 7.0458 13.0548 8.06189 12.8988L12.7797 12.1848L14.8884 7.72223C15.3429 6.75926 16.656 6.75926 17.1114 7.72223L19.2201 12.1848L23.9379 12.8988C24.954 13.0538 25.3599 14.3569 24.6246 15.1066L21.2109 18.5808L22.0164 23.4849C22.1892 24.5418 21.1272 25.3479 20.2182 24.8481L15.9999 22.5332Z" fill="white"/>
<defs>
<linearGradient id="paint0_linear_1492_2053" x1="15.9999" y1="6.99977" x2="15.9999" y2="25.0003" gradientUnits="userSpaceOnUse">
<stop stop-color="#FFE61C"/>
<stop offset="1" stop-color="#FFA929"/>
</linearGradient>
</defs>
</svg>
