<svg width="41" height="40" viewBox="0 0 41 40" fill="none" xmlns="http://www.w3.org/2000/svg">
<path d="M32.4447 23.3977H8.55505V12.6467C8.55505 6.06059 13.9138 0.702148 20.4999 0.702148C27.086 0.702148 32.4447 6.06059 32.4447 12.6467V23.3977ZM14.1857 17.7671H26.8142V12.6466C26.8142 9.16504 23.9818 6.33262 20.5 6.33262C17.0182 6.33262 14.1858 9.16504 14.1858 12.6466L14.1857 17.7671Z" fill="#C6E2F8"/>
<path d="M38.6708 28.5468C38.6708 34.4843 33.8575 39.2976 27.92 39.2976H13.08C7.14246 39.2976 2.3291 34.4843 2.3291 28.5468C2.3291 22.6093 7.14238 17.7959 13.08 17.7959H27.92C33.8575 17.7959 38.6708 22.6092 38.6708 28.5468Z" fill="#1367F7"/>
<path d="M9.94934 29.284L12.3095 26.9238L13.1896 27.8039L10.8294 30.1641L9.94934 29.284Z" fill="#C6E2F8"/>
<path d="M9.94922 27.8049L10.8294 26.9248L13.1895 29.285L12.3094 30.165L9.94922 27.8049ZM15.8995 29.2856L18.2596 26.9254L19.1398 27.8055L16.7796 30.1657L15.8995 29.2856Z" fill="#C6E2F8"/>
<path d="M15.8995 27.805L16.7796 26.9248L19.1398 29.285L18.2597 30.165L15.8995 27.805ZM21.8498 29.2856L24.2099 26.9254L25.09 27.8055L22.7298 30.1657L21.8498 29.2856Z" fill="#C6E2F8"/>
<path d="M21.8497 27.8059L22.7298 26.9258L25.09 29.2859L24.2099 30.166L21.8497 27.8059ZM27.8 29.2866L30.1601 26.9264L31.0402 27.8065L28.68 30.1666L27.8 29.2866Z" fill="#C6E2F8"/>
<path d="M27.7999 27.8059L28.68 26.9258L31.0402 29.2859L30.1601 30.166L27.7999 27.8059Z" fill="#C6E2F8"/>
</svg>
