<svg width="25" height="24" viewBox="0 0 25 24" fill="none" xmlns="http://www.w3.org/2000/svg">
<path d="M23.5045 3.51313L21.4889 18.8443C21.3516 19.8868 20.3916 20.6135 19.3562 20.4763L18.28 20.3323L16.2711 5.06976C16.0994 3.78726 15.0025 2.82051 13.7065 2.82051C13.597 2.82051 13.4804 2.82726 13.3705 2.84113L9.18137 3.38976L9.40749 1.65501C9.43976 1.40731 9.52054 1.1684 9.64522 0.951939C9.76989 0.735483 9.93602 0.545728 10.1341 0.393527C10.3322 0.241326 10.5583 0.129665 10.7995 0.0649295C11.0408 0.000194002 11.2925 -0.0163455 11.5401 0.0162568L21.8661 1.38088C22.1138 1.41315 22.3527 1.49392 22.5691 1.61857C22.7855 1.74322 22.9753 1.90931 23.1274 2.10734C23.2796 2.30537 23.3913 2.53145 23.4561 2.77267C23.5208 3.01389 23.537 3.2655 23.5045 3.51313ZM17.6084 20.4916L15.5909 5.16051C15.5583 4.91294 15.4773 4.67421 15.3525 4.45795C15.2277 4.24169 15.0615 4.05212 14.8635 3.90009C14.6654 3.74805 14.4393 3.63652 14.1982 3.57187C13.957 3.50721 13.7054 3.49069 13.4579 3.52326L3.13262 4.88226C2.63271 4.94806 2.17941 5.20975 1.87244 5.60976C1.56547 6.00978 1.42997 6.51534 1.49575 7.01526L3.51287 22.346C3.54541 22.5936 3.62639 22.8323 3.7512 23.0486C3.87601 23.2648 4.04219 23.4544 4.24026 23.6064C4.43833 23.7585 4.66441 23.87 4.90558 23.9346C5.14676 23.9993 5.39831 24.0158 5.64587 23.9833L15.9711 22.6246C16.2187 22.5921 16.4574 22.5111 16.6737 22.3863C16.8899 22.2615 17.0795 22.0953 17.2315 21.8972C17.3836 21.6992 17.4951 21.4731 17.5598 21.2319C17.6244 20.9907 17.6409 20.7392 17.6084 20.4916Z" fill="#FEFEFE"/>
</svg>
