<svg width="57" height="40" viewBox="0 0 57 40" fill="none" xmlns="http://www.w3.org/2000/svg">
<g opacity="0.5">
<path d="M32.4446 23.3977H8.55493V12.6467C8.55493 6.06059 13.9137 0.702148 20.4998 0.702148C27.0859 0.702148 32.4446 6.06059 32.4446 12.6467V23.3977ZM14.1856 17.7671H26.8141V12.6466C26.8141 9.16504 23.9817 6.33262 20.4999 6.33262C17.0181 6.33262 14.1856 9.16504 14.1856 12.6466L14.1856 17.7671Z" fill="#C6E2F8"/>
<path d="M38.6708 28.5468C38.6708 34.4843 33.8575 39.2976 27.92 39.2976H13.08C7.14246 39.2976 2.3291 34.4843 2.3291 28.5468C2.3291 22.6093 7.14238 17.7959 13.08 17.7959H27.92C33.8575 17.7959 38.6708 22.6092 38.6708 28.5468Z" fill="#1367F7"/>
<path d="M9.94922 29.284L12.3094 26.9238L13.1895 27.8039L10.8293 30.1641L9.94922 29.284Z" fill="#C6E2F8"/>
<path d="M9.94922 27.8049L10.8294 26.9248L13.1895 29.285L12.3094 30.165L9.94922 27.8049ZM15.8995 29.2856L18.2596 26.9254L19.1398 27.8055L16.7796 30.1657L15.8995 29.2856Z" fill="#C6E2F8"/>
<path d="M15.8994 27.805L16.7795 26.9248L19.1396 29.285L18.2596 30.165L15.8994 27.805ZM21.8496 29.2856L24.2098 26.9254L25.0899 27.8055L22.7297 30.1657L21.8496 29.2856Z" fill="#C6E2F8"/>
<path d="M21.8496 27.8059L22.7297 26.9258L25.0898 29.2859L24.2098 30.166L21.8496 27.8059ZM27.7998 29.2866L30.16 26.9264L31.0401 27.8065L28.6799 30.1666L27.7998 29.2866Z" fill="#C6E2F8"/>
<path d="M27.8 27.8059L28.6801 26.9258L31.0403 29.2859L30.1602 30.166L27.8 27.8059Z" fill="#C6E2F8"/>
</g>
<path d="M48.4446 23.3977H24.5549V12.6467C24.5549 6.06059 29.9137 0.702148 36.4998 0.702148C43.0859 0.702148 48.4446 6.06059 48.4446 12.6467V23.3977ZM30.1856 17.7671H42.8141V12.6466C42.8141 9.16504 39.9817 6.33262 36.4999 6.33262C33.0181 6.33262 30.1856 9.16504 30.1856 12.6466L30.1856 17.7671Z" fill="#C6E2F8"/>
<path d="M54.6708 28.5468C54.6708 34.4843 49.8575 39.2976 43.92 39.2976H29.08C23.1425 39.2976 18.3291 34.4843 18.3291 28.5468C18.3291 22.6093 23.1424 17.7959 29.08 17.7959H43.92C49.8575 17.7959 54.6708 22.6092 54.6708 28.5468Z" fill="#1367F7"/>
<path d="M25.9492 29.284L28.3094 26.9238L29.1895 27.8039L26.8293 30.1641L25.9492 29.284Z" fill="#C6E2F8"/>
<path d="M25.9492 27.8049L26.8294 26.9248L29.1895 29.285L28.3094 30.165L25.9492 27.8049ZM31.8995 29.2856L34.2596 26.9254L35.1398 27.8055L32.7796 30.1657L31.8995 29.2856Z" fill="#C6E2F8"/>
<path d="M31.8994 27.805L32.7795 26.9248L35.1396 29.285L34.2596 30.165L31.8994 27.805ZM37.8496 29.2856L40.2098 26.9254L41.0899 27.8055L38.7297 30.1657L37.8496 29.2856Z" fill="#C6E2F8"/>
<path d="M37.8496 27.8059L38.7297 26.9258L41.0898 29.2859L40.2098 30.166L37.8496 27.8059ZM43.7998 29.2866L46.16 26.9264L47.0401 27.8065L44.6799 30.1666L43.7998 29.2866Z" fill="#C6E2F8"/>
<path d="M43.8 27.8059L44.6801 26.9258L47.0403 29.2859L46.1602 30.166L43.8 27.8059Z" fill="#C6E2F8"/>
</svg>
