<svg width="25" height="47" viewBox="0 0 25 47" fill="none" xmlns="http://www.w3.org/2000/svg">
<path d="M23.3 2.8951H13.7V1.69755C13.7 1.09877 13.1 0.5 12.5 0.5C11.78 0.5 11.3 1.09877 11.3 1.69755V2.8951H1.7C0.98 2.8951 0.5 3.49387 0.5 4.09264V18.4632C0.5 19.1817 0.98 19.6608 1.7 19.6608H7.1L5.42 22.6546C5.18 23.2534 5.3 23.9719 5.9 24.3312C6.5 24.5707 7.22 24.451 7.58 23.8522L9.86 19.6608H15.14L17.42 23.8522C17.78 24.451 18.62 24.6905 19.1 24.3312C19.7 23.9719 19.94 23.2534 19.58 22.6546L17.9 19.6608H23.3C23.9 19.6608 24.5 19.1817 24.5 18.4632V4.09264C24.5 3.37411 23.9 2.8951 23.3 2.8951Z" fill="#0059E7"/>
<circle cx="12.5" cy="42.5" r="4" fill="#0059E7"/>
</svg>
