<svg width="28" height="28" viewBox="0 0 28 28" fill="none" xmlns="http://www.w3.org/2000/svg">
<g clip-path="url(#clip0_1383_814)">
<path d="M13.9999 0.708496C11.3711 0.708496 8.80127 1.48804 6.61547 2.94855C4.42967 4.40905 2.72604 6.48493 1.72003 8.91366C0.714011 11.3424 0.450792 14.0149 0.963654 16.5932C1.47652 19.1716 2.74242 21.5399 4.6013 23.3988C6.46017 25.2577 8.82852 26.5236 11.4068 27.0364C13.9852 27.5493 16.6577 27.2861 19.0864 26.2801C21.5152 25.274 23.591 23.5704 25.0515 21.3846C26.5121 19.1988 27.2916 16.629 27.2916 14.0002C27.2874 10.4763 25.8857 7.0979 23.394 4.60613C20.9022 2.11436 17.5238 0.712653 13.9999 0.708496ZM20.0416 15.2085H15.2083V20.0418C15.2083 20.3623 15.081 20.6696 14.8543 20.8963C14.6277 21.1229 14.3204 21.2502 13.9999 21.2502C13.6795 21.2502 13.3721 21.1229 13.1455 20.8963C12.9189 20.6696 12.7916 20.3623 12.7916 20.0418V15.2085H7.95826C7.63779 15.2085 7.33044 15.0812 7.10384 14.8546C6.87723 14.628 6.74992 14.3206 6.74992 14.0002C6.74992 13.6797 6.87723 13.3723 7.10384 13.1457C7.33044 12.9191 7.63779 12.7918 7.95826 12.7918H12.7916V7.9585C12.7916 7.63803 12.9189 7.33068 13.1455 7.10408C13.3721 6.87747 13.6795 6.75016 13.9999 6.75016C14.3204 6.75016 14.6277 6.87747 14.8543 7.10408C15.081 7.33068 15.2083 7.63803 15.2083 7.9585V12.7918H20.0416C20.3621 12.7918 20.6694 12.9191 20.896 13.1457C21.1226 13.3723 21.2499 13.6797 21.2499 14.0002C21.2499 14.3206 21.1226 14.628 20.896 14.8546C20.6694 15.0812 20.3621 15.2085 20.0416 15.2085Z" fill="white"/>
</g>
<defs>
<clipPath id="clip0_1383_814">
<rect width="27" height="27" fill="white" transform="translate(0.5 0.5)"/>
</clipPath>
</defs>
</svg>
