<svg width="25" height="24" viewBox="0 0 25 24" fill="none" xmlns="http://www.w3.org/2000/svg">
<path d="M23.3 2.3951H13.7V1.19755C13.7 0.598774 13.1 0 12.5 0C11.78 0 11.3 0.598774 11.3 1.19755V2.3951H1.7C0.98 2.3951 0.5 2.99387 0.5 3.59264V17.9632C0.5 18.6817 0.98 19.1608 1.7 19.1608H7.1L5.42 22.1546C5.18 22.7534 5.3 23.4719 5.9 23.8312C6.5 24.0707 7.22 23.951 7.58 23.3522L9.86 19.1608H15.14L17.42 23.3522C17.78 23.951 18.62 24.1905 19.1 23.8312C19.7 23.4719 19.94 22.7534 19.58 22.1546L17.9 19.1608H23.3C23.9 19.1608 24.5 18.6817 24.5 17.9632V3.59264C24.5 2.87411 23.9 2.3951 23.3 2.3951Z" fill="black" fill-opacity="0.25"/>
</svg>
