<svg width="29" height="29" viewBox="0 0 29 29" fill="none" xmlns="http://www.w3.org/2000/svg">
<circle cx="14.7469" cy="14.7928" r="9.57895" fill="#FEFEFE"/>
<path d="M14.747 0.792725C7.04701 0.792725 0.747009 7.09272 0.747009 14.7927C0.747009 22.4927 7.04701 28.7927 14.747 28.7927C22.447 28.7927 28.747 22.4927 28.747 14.7927C28.747 7.09272 22.447 0.792725 14.747 0.792725ZM20.627 12.4127L13.907 19.1327C13.347 19.6927 12.507 19.6927 11.947 19.1327L8.86701 16.0527C8.30701 15.4927 8.30701 14.6527 8.86701 14.0927C9.42701 13.5327 10.267 13.5327 10.827 14.0927L12.927 16.1927L18.667 10.4527C19.227 9.89272 20.067 9.89272 20.627 10.4527C21.187 11.0127 21.187 11.8527 20.627 12.4127Z" fill="#2CC500"/>
</svg>
