<svg width="25" height="36" viewBox="0 0 25 36" fill="none" xmlns="http://www.w3.org/2000/svg">
<path d="M0 0L25 1.39091e-06L25 33.2271C25 34.419 23.6768 35.1348 22.6791 34.4825L12 27.5L2.36702 34.3234C1.37364 35.027 -1.74258e-06 34.3167 -1.68077e-06 33.0993L0 0Z" fill="#0059E7"/>
<path d="M8.35881 12.859L10.6268 12.859L11.1168 10.297L12.2928 10.297L11.8028 12.859L13.0348 12.859L13.0348 13.895L11.5928 13.895L11.1168 16.401L13.0348 16.401L13.0348 17.437L10.9208 17.437L10.4308 19.999L9.25481 19.999L9.74481 17.437L7.47681 17.437L6.98681 19.999L5.81081 19.999L6.30081 17.437L5.06881 17.437L5.06881 16.401L6.49681 16.401L6.97281 13.895L5.06881 13.895L5.06881 12.859L7.18281 12.859L7.67281 10.297L8.84881 10.297L8.35881 12.859ZM7.67281 16.401L9.94081 16.401L10.4308 13.895L8.16281 13.895L7.67281 16.401ZM15.0227 12.299C15.5547 12.0937 16.0727 11.8324 16.5767 11.515C17.0807 11.1884 17.5427 10.7824 17.9627 10.297L18.8867 10.297L18.8867 19.999L17.5847 19.999L17.5847 12.103C17.4727 12.2057 17.3327 12.313 17.1647 12.425C17.006 12.537 16.8287 12.6444 16.6327 12.747C16.446 12.8497 16.2454 12.9477 16.0307 13.041C15.8254 13.1344 15.6247 13.2137 15.4287 13.279L15.0227 12.299Z" fill="white"/>
</svg>
