<svg width="45" height="30" viewBox="0 0 45 30" fill="none" xmlns="http://www.w3.org/2000/svg">
<path d="M42.8735 8.1142L30.2054 1.45016C30.0303 1.35803 29.8388 1.3013 29.6418 1.28321C29.4448 1.26512 29.2462 1.28602 29.0573 1.34473C28.8684 1.40343 28.6929 1.49878 28.5408 1.62533C28.3888 1.75188 28.2632 1.90715 28.1711 2.08227L28.0228 2.36411L18.9454 0.441931C18.5544 0.360426 18.147 0.43718 17.8125 0.655389C17.4779 0.873598 17.2435 1.21548 17.1605 1.60618L17.0598 2.08865L9.57443 2.33425C9.37659 2.34083 9.18199 2.38633 9.00173 2.46814C8.82148 2.54994 8.6591 2.66646 8.52388 2.81102C8.38866 2.95559 8.28325 3.12538 8.21365 3.31069C8.14406 3.496 8.11166 3.69321 8.11829 3.89105L8.16392 5.28042L2.57219 6.6859C2.18512 6.78409 1.8527 7.03163 1.64771 7.37433C1.44272 7.71703 1.38184 8.12699 1.4784 8.51447L6.46754 28.3637C6.55031 28.6888 6.73906 28.9772 7.00396 29.1832C7.26887 29.3891 7.59484 29.501 7.9304 29.5011C8.05361 29.5013 8.1764 29.4866 8.29611 29.4574L22.1798 25.9681C22.5225 25.879 22.8229 25.6724 23.0287 25.3843L23.3444 25.3739L26.5318 26.0483L31.942 28.8941C32.1572 29.008 32.3971 29.0674 32.6406 29.0672C32.9154 29.0673 33.1851 28.9923 33.4204 28.8504C33.6558 28.7085 33.848 28.5051 33.9763 28.262L43.5049 10.1481C43.6904 9.79456 43.7281 9.38189 43.6097 9.00061C43.4913 8.61933 43.2266 8.30055 42.8735 8.1142ZM29.0609 2.55066C29.0899 2.49137 29.131 2.43891 29.1818 2.39674C29.2325 2.35458 29.2916 2.32367 29.3552 2.30606C29.4824 2.27696 29.6155 2.2887 29.7357 2.33962C30.1469 2.5528 30.5569 2.76842 30.9657 2.98649L29.0452 2.57985L29.0609 2.55066ZM18.1469 1.8142C18.1707 1.70265 18.232 1.6026 18.3204 1.5306C18.4089 1.4586 18.5193 1.41898 18.6334 1.41829C18.6683 1.41815 18.7032 1.42152 18.7374 1.42835L21.2135 1.95209L18.0962 2.05275L18.1469 1.8142ZM22.2402 24.7636C22.1726 24.8769 22.0628 24.959 21.9349 24.9917L8.05118 28.4811C7.92265 28.5127 7.78684 28.4924 7.67317 28.4245C7.55951 28.3567 7.47713 28.2469 7.4439 28.1187L2.45476 8.26954C2.43857 8.20587 2.4351 8.13963 2.44456 8.07462C2.45402 8.00961 2.47622 7.9471 2.50988 7.89069C2.54354 7.83427 2.58801 7.78505 2.64073 7.74585C2.69346 7.70665 2.7534 7.67825 2.81712 7.66226L16.7008 4.17288C16.7643 4.15578 16.8306 4.15164 16.8957 4.16073C16.9608 4.16981 17.0234 4.19192 17.0798 4.22575C17.1361 4.25957 17.1851 4.30441 17.2238 4.35758C17.2624 4.41076 17.29 4.47118 17.3047 4.53524L17.402 4.92779L21.8443 22.5793L22.2972 24.3844C22.3132 24.4483 22.3164 24.5146 22.3066 24.5797C22.2968 24.6448 22.2742 24.7072 22.2402 24.7636ZM24.968 24.1697C24.8769 24.266 24.7515 24.3227 24.619 24.3274L23.3028 24.3368C23.2975 24.2704 23.2878 24.2045 23.2736 24.1395L22.8743 22.5458L23.5152 22.5257L23.3239 16.7212L21.4249 16.785L21.1733 15.7851L23.2904 15.7147L22.9314 4.74662L18.4321 4.89424L18.2811 4.29031C18.1838 3.9034 17.937 3.5709 17.5948 3.36582C17.2526 3.16075 16.843 3.09986 16.4559 3.19653L9.16342 5.02946L9.12484 3.8575C9.12195 3.79171 9.13234 3.72601 9.1554 3.66433C9.17846 3.60265 9.21371 3.54625 9.25905 3.49849C9.35014 3.40215 9.47548 3.34551 9.60798 3.3408L23.9144 2.87107H23.9312C24.0607 2.87183 24.1849 2.92247 24.278 3.01245C24.3711 3.10243 24.426 3.22484 24.4311 3.35422L24.468 4.52182L24.8405 15.8187L24.874 16.8554L25.0686 22.8343L25.1022 23.8107C25.1065 23.9434 25.0583 24.0724 24.968 24.1697ZM29.068 24.1731L28.8902 25.0085C28.862 25.1381 28.7838 25.2513 28.6726 25.3235C28.5614 25.3958 28.4261 25.4212 28.2963 25.3943L25.7094 24.8468C25.9784 24.5569 26.122 24.1724 26.1087 23.7771L26.0852 23.0491L27.6554 23.3812L28.86 17.7009L25.8873 17.0702L25.8537 16.0334L29.068 16.7145L31.3428 5.97796L25.4813 4.73655L25.4343 3.32067C25.427 3.14956 25.3906 2.98095 25.3266 2.82209L32.7416 4.39097C32.8714 4.41859 32.9851 4.49666 33.0574 4.60802C33.1298 4.71938 33.1549 4.85492 33.1274 4.98483L32.8959 6.08197L30.5342 17.2413L30.3161 18.2646L29.068 24.1697V24.1731ZM42.6145 9.67872L33.0858 27.7929C33.0234 27.9096 32.9176 27.997 32.7913 28.0363C32.6649 28.0755 32.5282 28.0634 32.4107 28.0026L29.072 26.2462C29.2748 26.1465 29.4523 26.0019 29.5911 25.8236C29.7299 25.6452 29.8264 25.4376 29.8732 25.2165L29.9906 24.6562L32.3426 25.8943L35.0469 20.7541L31.2421 18.7511L31.4602 17.7278L35.5166 19.8617L40.6265 10.1484L33.8223 6.56847L34.1142 5.19285C34.1508 5.01371 34.1542 4.82936 34.1242 4.64898L42.4051 9.005C42.5221 9.06691 42.6099 9.17267 42.6491 9.29913C42.6884 9.42558 42.6759 9.56243 42.6145 9.67972V9.67872Z" fill="#0059E7"/>
<path d="M4.28369 9.19176L16.1459 6.20801L18.8243 16.856L6.96246 19.8397L4.28369 9.19176ZM7.20336 20.8201L19.0656 17.8364L20.4821 23.4677L8.61991 26.4514L7.20336 20.8201Z" fill="#0059E7"/>
</svg>
