<svg width="25" height="24" viewBox="0 0 25 24" fill="none" xmlns="http://www.w3.org/2000/svg">
<path d="M11.4091 3.27273V7.63636C11.4091 8.50434 11.0643 9.33678 10.4505 9.95053C9.83678 10.5643 9.00434 10.9091 8.13636 10.9091H3.77273C2.90475 10.9091 2.07232 10.5643 1.45856 9.95053C0.844804 9.33678 0.5 8.50434 0.5 7.63636V3.27273C0.5 2.40475 0.844804 1.57232 1.45856 0.95856C2.07232 0.344804 2.90475 0 3.77273 0H8.13636C9.00434 0 9.83678 0.344804 10.4505 0.95856C11.0643 1.57232 11.4091 2.40475 11.4091 3.27273ZM21.2273 0H16.8636C15.9957 0 15.1632 0.344804 14.5495 0.95856C13.9357 1.57232 13.5909 2.40475 13.5909 3.27273V7.63636C13.5909 8.50434 13.9357 9.33678 14.5495 9.95053C15.1632 10.5643 15.9957 10.9091 16.8636 10.9091H21.2273C22.0953 10.9091 22.9277 10.5643 23.5414 9.95053C24.1552 9.33678 24.5 8.50434 24.5 7.63636V3.27273C24.5 2.40475 24.1552 1.57232 23.5414 0.95856C22.9277 0.344804 22.0953 0 21.2273 0ZM8.13636 13.0909H3.77273C2.90475 13.0909 2.07232 13.4357 1.45856 14.0495C0.844804 14.6632 0.5 15.4957 0.5 16.3636V20.7273C0.5 21.5953 0.844804 22.4277 1.45856 23.0414C2.07232 23.6552 2.90475 24 3.77273 24H8.13636C9.00434 24 9.83678 23.6552 10.4505 23.0414C11.0643 22.4277 11.4091 21.5953 11.4091 20.7273V16.3636C11.4091 15.4957 11.0643 14.6632 10.4505 14.0495C9.83678 13.4357 9.00434 13.0909 8.13636 13.0909ZM21.2273 13.0909H16.8636C15.9957 13.0909 15.1632 13.4357 14.5495 14.0495C13.9357 14.6632 13.5909 15.4957 13.5909 16.3636V20.7273C13.5909 21.5953 13.9357 22.4277 14.5495 23.0414C15.1632 23.6552 15.9957 24 16.8636 24H21.2273C22.0953 24 22.9277 23.6552 23.5414 23.0414C24.1552 22.4277 24.5 21.5953 24.5 20.7273V16.3636C24.5 15.4957 24.1552 14.6632 23.5414 14.0495C22.9277 13.4357 22.0953 13.0909 21.2273 13.0909Z" fill="#0059E7"/>
</svg>
