<svg width="32" height="32" viewBox="0 0 32 32" fill="none" xmlns="http://www.w3.org/2000/svg">
<path d="M16.0002 0.246826C12.8845 0.246826 9.8388 1.17073 7.24822 2.9017C4.65764 4.63267 2.63852 7.09297 1.44621 9.97147C0.253896 12.85 -0.0580678 16.0174 0.549769 19.0732C1.1576 22.129 2.65794 24.9359 4.86105 27.139C7.06416 29.3421 9.87109 30.8425 12.9269 31.4503C15.9827 32.0581 19.1501 31.7462 22.0286 30.5539C24.9071 29.3616 27.3674 27.3424 29.0984 24.7519C30.8294 22.1613 31.7533 19.1156 31.7533 15.9999C31.7483 11.8234 30.087 7.81945 27.1338 4.86624C24.1806 1.91303 20.1766 0.251753 16.0002 0.246826ZM23.1607 17.432H17.4323V23.1604C17.4323 23.5402 17.2814 23.9045 17.0128 24.1731C16.7442 24.4416 16.38 24.5925 16.0002 24.5925C15.6203 24.5925 15.2561 24.4416 14.9875 24.1731C14.7189 23.9045 14.5681 23.5402 14.5681 23.1604V17.432H8.83967C8.45985 17.432 8.09559 17.2811 7.82702 17.0126C7.55845 16.744 7.40757 16.3797 7.40757 15.9999C7.40757 15.6201 7.55845 15.2558 7.82702 14.9873C8.09559 14.7187 8.45985 14.5678 8.83967 14.5678H14.5681V8.83942C14.5681 8.4596 14.7189 8.09534 14.9875 7.82677C15.2561 7.5582 15.6203 7.40732 16.0002 7.40732C16.38 7.40732 16.7442 7.5582 17.0128 7.82677C17.2814 8.09534 17.4323 8.4596 17.4323 8.83942V14.5678H23.1607C23.5405 14.5678 23.9047 14.7187 24.1733 14.9873C24.4419 15.2558 24.5928 15.6201 24.5928 15.9999C24.5928 16.3797 24.4419 16.744 24.1733 17.0126C23.9047 17.2811 23.5405 17.432 23.1607 17.432Z" fill="white"/>
</svg>
