<svg width="21" height="24" viewBox="0 0 21 24" fill="none" xmlns="http://www.w3.org/2000/svg">
<path d="M10.3492 11.5608C11.9298 11.5608 13.2986 10.9912 14.4169 9.86725C15.5353 8.74357 16.1022 7.36865 16.1022 5.78025C16.1022 4.19233 15.5353 2.81726 14.4167 1.69316C13.2982 0.56962 11.9296 0 10.3492 0C8.76835 0 7.39995 0.569621 6.28164 1.69335C5.16333 2.81707 4.59619 4.19219 4.59619 5.78025C4.59619 7.36865 5.16328 8.74376 6.28182 9.86749C7.40037 10.991 8.76891 11.5608 10.3492 11.5608ZM20.4153 18.4547C20.3831 17.9871 20.3178 17.4769 20.2218 16.9382C20.1249 16.3955 20.0001 15.8824 19.8506 15.4135C19.6963 14.9288 19.4863 14.4502 19.2269 13.9915C18.9575 13.5155 18.6412 13.1009 18.2862 12.7598C17.915 12.4029 17.4605 12.116 16.9349 11.9067C16.4112 11.6985 15.8308 11.5931 15.21 11.5931C14.9661 11.5931 14.7304 11.6936 14.275 11.9915C13.9512 12.2033 13.6266 12.4136 13.3009 12.6224C12.988 12.8228 12.5642 13.0105 12.0406 13.1804C11.5298 13.3465 11.0112 13.4307 10.4993 13.4307C9.98747 13.4307 9.469 13.3465 8.95766 13.1804C8.4347 13.0106 8.01084 12.823 7.69828 12.6226C7.3358 12.3899 7.00785 12.1775 6.72337 11.9913C6.26853 11.6934 6.03252 11.5928 5.78872 11.5928C5.16766 11.5928 4.58747 11.6985 4.06391 11.9069C3.53872 12.1158 3.08406 12.4027 2.71248 12.76C2.35771 13.1013 2.04118 13.5156 1.77219 13.9915C1.51291 14.4502 1.30298 14.9286 1.14843 15.4137C0.999145 15.8826 0.874355 16.3955 0.777415 16.9382C0.681361 17.4762 0.616143 17.9865 0.583861 18.4552C0.551747 18.927 0.53583 19.3996 0.536137 19.8725C0.536137 21.1253 0.932481 22.1395 1.71407 22.8874C2.486 23.6256 3.50737 24 4.74944 24H16.2503C17.4924 24 18.5134 23.6258 19.2855 22.8875C20.0673 22.14 20.4636 21.1256 20.4636 19.8723C20.4634 19.3887 20.4473 18.9117 20.4153 18.4547Z" fill="black" fill-opacity="0.25"/>
</svg>
