<svg width="33" height="32" viewBox="0 0 33 32" fill="none" xmlns="http://www.w3.org/2000/svg">
<mask id="mask0_1005_5911" style="mask-type:luminance" maskUnits="userSpaceOnUse" x="-1" y="0" width="34" height="32">
<path fill-rule="evenodd" clip-rule="evenodd" d="M-0.00872803 0H32.5027V32H-0.00872803V0Z" fill="white"/>
</mask>
<g mask="url(#mask0_1005_5911)">
<path fill-rule="evenodd" clip-rule="evenodd" d="M32.5027 16.0978C32.5027 7.20722 25.2248 0 16.247 0C7.2692 0 -0.00872803 7.20722 -0.00872803 16.0978C-0.00872803 24.1327 5.93576 30.7924 13.707 32V20.751H9.57961V16.0978H13.707V12.5512C13.707 8.51673 16.1339 6.2882 19.8471 6.2882C21.6256 6.2882 23.4859 6.60261 23.4859 6.60261V10.5642H21.4361C19.4167 10.5642 18.787 11.805 18.787 13.0781V16.0978H23.2954L22.5747 20.751H18.787V32C26.5582 30.7924 32.5027 24.1327 32.5027 16.0978Z" fill="#1877F2"/>
</g>
<path fill-rule="evenodd" clip-rule="evenodd" d="M22.4268 20.5143L23.164 15.8444H18.5526V12.8139C18.5526 11.5363 19.1968 10.291 21.2622 10.291H23.3588V6.31529C23.3588 6.31529 21.4561 5.99976 19.6369 5.99976C15.839 5.99976 13.3567 8.23626 13.3567 12.2852V15.8444H9.13507V20.5143H13.3567V31.8035C14.2032 31.9325 15.0709 31.9998 15.9547 31.9998C16.8385 31.9998 17.7061 31.9325 18.5526 31.8035V20.5143H22.4268Z" fill="white"/>
</svg>
