<svg width="31" height="32" viewBox="0 0 31 32" fill="none" xmlns="http://www.w3.org/2000/svg">
<path d="M15.5927 0.647949C12.5845 0.647949 9.64379 1.53999 7.14254 3.21127C4.64129 4.88256 2.6918 7.25802 1.5406 10.0373C0.389403 12.8165 0.0881965 15.8747 0.675073 18.8251C1.26195 21.7755 2.71055 24.4857 4.83769 26.6128C6.96483 28.74 9.67497 30.1886 12.6254 30.7754C15.5758 31.3623 18.634 31.0611 21.4133 29.9099C24.1925 28.7587 26.568 26.8092 28.2392 24.308C29.9105 21.8067 30.8026 18.8661 30.8026 15.8578C30.7978 11.8254 29.1938 7.95944 26.3424 5.10807C23.4911 2.2567 19.6251 0.652706 15.5927 0.647949ZM22.5063 17.2405H16.9754H14.21H8.67911C8.31239 17.2405 7.9607 17.0949 7.70139 16.8356C7.44208 16.5762 7.2964 16.2245 7.2964 15.8578C7.2964 15.4911 7.44208 15.1394 7.70139 14.8801C7.9607 14.6208 8.31239 14.4751 8.67911 14.4751L14.1915 14.4751L16.9754 14.4751H22.5063C22.873 14.4751 23.2247 14.6208 23.484 14.8801C23.7433 15.1394 23.889 15.4911 23.889 15.8578C23.889 16.2245 23.7433 16.5762 23.484 16.8356C23.2247 17.0949 22.873 17.2405 22.5063 17.2405Z" fill="#0059E7"/>
</svg>
