<svg width="25" height="36" viewBox="0 0 25 36" fill="none" xmlns="http://www.w3.org/2000/svg">
<path d="M0 0L25 1.39091e-06L25 33.2271C25 34.419 23.6768 35.1348 22.6791 34.4825L12 27.5L2.36702 34.3234C1.37364 35.027 -1.74258e-06 34.3167 -1.68077e-06 33.0993L0 0Z" fill="#0059E7"/>
<path d="M8.35881 12.859L10.6268 12.859L11.1168 10.297L12.2928 10.297L11.8028 12.859L13.0348 12.859L13.0348 13.895L11.5928 13.895L11.1168 16.401L13.0348 16.401L13.0348 17.437L10.9208 17.437L10.4308 19.999L9.25481 19.999L9.74481 17.437L7.47681 17.437L6.98681 19.999L5.81081 19.999L6.30081 17.437L5.06881 17.437L5.06881 16.401L6.49681 16.401L6.97281 13.895L5.06881 13.895L5.06881 12.859L7.18281 12.859L7.67281 10.297L8.84881 10.297L8.35881 12.859ZM7.67281 16.401L9.94081 16.401L10.4308 13.895L8.16281 13.895L7.67281 16.401ZM20.2587 12.775C20.2587 13.111 20.1887 13.4377 20.0487 13.755C19.918 14.063 19.7407 14.371 19.5167 14.679C19.2927 14.9777 19.0407 15.2764 18.7607 15.575C18.4807 15.8644 18.2007 16.149 17.9207 16.429C17.762 16.5877 17.5754 16.7744 17.3607 16.989C17.1554 17.2037 16.9594 17.4277 16.7727 17.661C16.586 17.8944 16.4274 18.1184 16.2967 18.333C16.1754 18.5477 16.1147 18.7344 16.1147 18.893L20.5807 18.893L20.5807 19.999L14.7007 19.999C14.6914 19.943 14.6867 19.887 14.6867 19.831C14.6867 19.775 14.6867 19.7237 14.6867 19.677C14.6867 19.2384 14.7567 18.8324 14.8967 18.459C15.046 18.0764 15.2374 17.717 15.4707 17.381C15.704 17.045 15.9654 16.7277 16.2547 16.429C16.544 16.1304 16.8287 15.841 17.1087 15.561C17.342 15.337 17.5614 15.1177 17.7667 14.903C17.9814 14.679 18.168 14.4597 18.3267 14.245C18.4947 14.021 18.6254 13.7924 18.7187 13.559C18.8214 13.3257 18.8727 13.0784 18.8727 12.817C18.8727 12.537 18.826 12.299 18.7327 12.103C18.6487 11.907 18.532 11.7437 18.3827 11.613C18.2334 11.4824 18.056 11.389 17.8507 11.333C17.6547 11.2677 17.4447 11.235 17.2207 11.235C16.95 11.235 16.7027 11.2724 16.4787 11.347C16.2547 11.4217 16.054 11.5104 15.8767 11.613C15.6994 11.7064 15.55 11.809 15.4287 11.921C15.3074 12.0237 15.214 12.103 15.1487 12.159L14.5047 11.235C14.5887 11.1417 14.7147 11.0297 14.8827 10.899C15.0507 10.759 15.2514 10.6284 15.4847 10.507C15.718 10.3857 15.9794 10.283 16.2687 10.199C16.558 10.115 16.8707 10.073 17.2067 10.073C18.224 10.073 18.9847 10.311 19.4887 10.787C20.002 11.2537 20.2587 11.9164 20.2587 12.775Z" fill="white"/>
</svg>
