<svg width="16" height="17" viewBox="0 0 16 17" fill="none" xmlns="http://www.w3.org/2000/svg">
<rect y="0.5" width="16" height="16" rx="8" fill="url(#paint0_linear_3403_1330)"/>
<path fill-rule="evenodd" clip-rule="evenodd" d="M5.2 6.91132C4.96467 6.92569 4.79772 6.95799 4.65521 7.0306C4.42942 7.14564 4.24584 7.32922 4.13079 7.55502C4 7.81171 4 8.14774 4 8.81981V10.5798C4 11.2519 4 11.5879 4.13079 11.8446C4.24584 12.0704 4.42942 12.254 4.65521 12.369C4.91191 12.4998 5.24794 12.4998 5.92 12.4998H10.08C10.7521 12.4998 11.0881 12.4998 11.3448 12.369C11.5706 12.254 11.7542 12.0704 11.8692 11.8446C12 11.5879 12 11.2519 12 10.5798V8.8198C12 8.14774 12 7.81171 11.8692 7.55502C11.7542 7.32922 11.5706 7.14564 11.3448 7.0306C11.2023 6.95799 11.0353 6.92569 10.8 6.91132V6.0998C10.8 4.55341 9.5464 3.2998 8 3.2998C6.4536 3.2998 5.2 4.55341 5.2 6.0998L5.2 6.91132ZM9.6 6.8998H6.4L6.4 6.0998C6.4 5.21615 7.11634 4.4998 8 4.4998C8.88366 4.4998 9.6 5.21615 9.6 6.0998V6.8998Z" fill="white"/>
<defs>
<linearGradient id="paint0_linear_3403_1330" x1="-8" y1="8.5" x2="8" y2="24.5" gradientUnits="userSpaceOnUse">
<stop stop-color="#B1B6BD"/>
<stop offset="1" stop-color="#99A2AD"/>
</linearGradient>
</defs>
</svg>
