<svg width="31" height="32" viewBox="0 0 31 32" fill="none" xmlns="http://www.w3.org/2000/svg">
<rect x="0.382812" y="0.647949" width="30.4198" height="30.4198" rx="15.2099" fill="#0059E7"/>
<path d="M17.3905 10.795L9.0131 19.1731C8.97092 19.2154 8.94085 19.2682 8.92604 19.3261L7.99745 23.0532C7.9838 23.1085 7.98463 23.1664 7.99988 23.2213C8.01513 23.2762 8.04428 23.3262 8.08451 23.3665C8.14631 23.4281 8.22997 23.4627 8.31722 23.4628C8.34413 23.4628 8.37094 23.4595 8.39704 23.4529L12.1241 22.5242C12.1821 22.5096 12.235 22.4796 12.2771 22.4373L20.6554 14.0598L17.3905 10.795ZM22.7308 9.65266L21.7983 8.72015C21.175 8.09688 20.0887 8.0975 19.4661 8.72015L18.3238 9.86249L21.5885 13.1271L22.7308 11.9848C23.0421 11.6736 23.2136 11.2594 23.2136 10.8188C23.2136 10.3783 23.0421 9.96402 22.7308 9.65266Z" fill="#FEFEFE"/>
</svg>
